<svg xmlns="http://www.w3.org/2000/svg" width="501" height="96" viewBox="0 0 501 96">
  <g fill="none">
    <path fill="#F48534" d="M69.7688889 26.7630841C69.9420741 28.0757009 69.4225185 28.4595794 68.0741481 28.5214953 64.9344223 28.7042357 62.0261817 30.2343353 60.0952593 32.7193925 54.677037 39.1586449 49.333037 45.6474299 43.9395556 52.1114486 42.1582222 54.2537383 42.1211111 54.2537383 43.6797778 56.5446262 50.1865926 66.1952492 56.7016543 75.8376168 63.224963 85.471729 64.3242487 87.4175883 65.8256197 89.1062686 67.6288148 90.425 68.5805785 91.1292308 69.7240192 91.5266099 70.906963 91.5642523 72.2182222 91.886215 71.6491852 92.8025701 71.5997037 93.6198598L40.6737778 93.6198598C40.1665926 93.6198598 39.3748889 94.0656542 39.2264444 92.938785 39.078 91.8119159 39.8820741 91.7747664 40.5624444 91.7004673 41.7805859 91.6015755 42.9625715 91.2381612 44.0261481 90.635514 44.5603779 90.3194416 44.9706555 89.8300942 45.188963 89.2485981 45.3946991 88.7360355 45.3946991 88.1637308 45.188963 87.6511682 43.9519259 84.6296729 41.9231852 82.128271 40.1665926 79.4535047 37.5935556 75.5528037 34.9215556 71.7140187 32.3485185 67.8133178 31.9031852 67.132243 31.6434074 67.0950935 31.1857037 67.689486 27.054 73.0018692 22.5264444 77.9799065 18.6421481 83.5151869 18.5555556 83.6390187 18.4937037 83.7628505 18.4194815 83.8990654 15.9454074 88.0969626 17.9122963 91.5023364 22.8480741 91.613785 23.8995556 92.096729 25.1242222 91.2918224 26.150963 92.0471963 26.2746667 93.3721963 25.6932593 93.7313084 24.3696296 93.7189252 16.8608148 93.6446262 9.33962963 93.7189252 1.83081481 93.7189252 1.31125926 93.7189252.482444444 94.1523364.383481481 93.0254673.284518519 91.8985981.804074074 91.7871495 1.62051852 91.6633178 4.3970787 91.1564959 6.97176648 89.8678192 9.04274074 87.9483645 12.0727308 85.0360218 14.8920363 81.9117118 17.4793333 78.5990654 20.8564444 74.4878505 24.2706667 70.413785 27.6601481 66.3273364 27.9452417 65.8905664 28.2637002 65.4765558 28.6126667 65.0890187 28.975978 64.8468728 29.2107235 64.453532 29.2515386 64.0185218 29.2923536 63.5835116 29.1348788 63.1532942 28.822963 62.8476636 23.1325926 54.2454829 17.4009877 45.7299844 11.6281481 37.3011682 10.3168889 35.3693925 9.04274074 33.3880841 7.63251852 31.5306075 6.63050993 30.0679059 5.05823951 29.0965858 3.30288889 28.8558411 1.58340741 28.7320093 1.73185185 27.803271 1.75659259 26.7135514 2.15244444 26.4163551 2.61014815 26.5525701 2.99362963 26.5525701L33.5979259 26.5525701C34.0432593 26.5525701 34.5875556 26.2801402 34.9339259 26.825 34.9339259 28.0633178 34.5504444 28.6453271 33.1897037 28.4471963 32.3592059 28.3539283 31.5184873 28.4254634 30.7156296 28.6577103 29.5584183 28.8229898 28.5797741 29.5992481 28.1544928 30.689198 27.7292115 31.7791478 27.9231933 33.0138943 28.6621481 33.9205607 32.3732593 39.6044393 36.0843704 45.2635514 39.7954815 51.021729 41.2018179 49.7589876 42.4481566 48.3283729 43.5065926 46.7619159 46.0409727 43.868739 48.3878876 40.8162454 50.532963 37.6231308 51.138264 36.5225826 51.6833642 35.3899152 52.1658519 34.2301402 52.3473196 33.57799 52.3473196 32.8885988 52.1658519 32.2364486 51.4854815 29.9455607 49.7783704 29.0292056 47.5888148 28.7567757 46.9194507 28.6867871 46.2545314 28.5792976 45.5971852 28.4348131 44.5580741 28.1871495 45.2384444 27.2955607 45.0157778 26.7259346 45.2617263 26.5578545 45.5646904 26.4954149 45.856963 26.5525701L68.8163704 26.5525701C69.2245926 26.5525701 69.5462222 26.4658879 69.7688889 26.7630841zM83.6731852 85.2488318C83.6731852 84.6049065 83.7474074 84.010514 83.7474074 83.3294393L83.7474074 36.7810748C83.7474074 36.1866822 83.7474074 35.542757 83.6731852 35.0102804 83.4381481 34.4035047 83.6731852 33.7719626 83.4628889 33.1404206 83.1412593 30.3294393 81.6073333 29.5121495 79.0466667 28.7567757 77.5859565 28.3757236 76.0657334 28.2790348 74.5685926 28.4719626 74.1603704 26.6021028 74.1851111 26.5525701 75.9045926 26.5525701L107.956222 26.5525701C108.375267 26.4765237 108.807566 26.5327806 109.193259 26.7135514 109.440667 28.15 108.846889 28.6329439 107.424296 28.4595794 106.056882 28.3140148 104.674498 28.4965427 103.391556 28.9920561 100.731926 29.9950935 99.9525926 31.3448598 99.964963 34.3292056 99.8154766 34.749672 99.7729624 35.2007891 99.8412593 35.6418224L99.8412593 84.5925234C99.770826 85.0334902 99.8133904 85.485139 99.964963 85.9051402 99.964963 89.4219626 101.795778 91.3661215 105.234741 91.5023364 106.471778 91.886215 107.906741 91.328972 109.193259 91.8119159 109.453037 93.211215 108.921111 93.5950935 107.473778 93.5950935 96.4641481 93.5207944 85.4545185 93.5950935 74.4448889 93.5950935 74.2345926 91.6261682 74.2345926 91.6261682 76.1396296 91.6261682 76.9039612 91.7152112 77.6778584 91.6733356 78.4281481 91.5023364 81.1372593 91.2794393 82.5598519 90.0163551 83.3762963 87.0691589 83.7597778 86.4995327 83.3762963 85.8308411 83.6731852 85.2488318zM117.295852 32.546028L117.295852 1.58808411C117.295852.498364486 117.666963.349766355 118.656593.349766355L145.191037.349766355C145.463185.646962617 145.351852 1.00607477 145.351852 1.34042056L145.351852 31.1714953C145.406323 31.5092756 145.340656 31.8554802 145.166296 32.1497664 144.461185 32.0754673 144.077704 31.4686916 143.63237 31.010514 138.753722 25.7584783 131.047084 24.2575801 124.557259 27.2955607 122.357956 28.2166429 120.414062 29.6569539 118.89163 31.4934579 118.458667 31.8897196 118.161778 32.6327103 117.295852 32.546028z"/>
    <path fill="#FDFDFD" d="M117.295852,32.546028 C119.956066,28.7945267 123.996785,26.2553256 128.528148,25.4876168 C134.446909,24.3897325 140.500366,26.5434613 144.399333,31.1343458 C144.597259,31.3448598 144.782815,31.5801402 144.96837,31.8030374 C145.351852,31.8030374 145.27763,31.4563084 145.27763,31.2334112 L145.27763,1.10514019 C145.257724,0.80945903 145.216381,0.515616712 145.153926,0.225934579 C145.710593,0.696495327 145.463185,1.34042056 145.463185,1.89766355 C145.463185,11.4574766 145.537407,21.0049065 145.463185,30.5647196 C145.476957,32.3573686 145.922523,34.1202379 146.762074,35.7037383 C149.236148,40.8551402 148.481556,45.8579439 145.94563,50.7492991 C145.61359,51.3861767 145.455686,52.0996199 145.487926,52.8172897 L145.487926,65.8815421 C145.487926,66.7483645 145.252889,67.1198598 144.312741,67.1198598 L118.198889,67.1198598 C117.852519,67.1198598 117.493778,67.1198598 117.271111,66.7978972 C117.96279,66.398097 118.773986,66.2576367 119.55963,66.4016355 L142.543778,66.4016355 C144.733333,66.4016355 144.745704,66.4016355 144.745704,64.1478972 L144.745704,53.7707944 C142.822758,55.8389882 140.493847,57.4873551 137.904889,58.6126168 C130.917102,61.4226091 122.916229,59.3902856 118.112296,53.5850467 C117.800268,53.0782558 117.527328,52.5483685 117.295852,52 C117.654593,51.3313084 116.986593,51.0588785 116.788667,50.6007009 C115.57269,48.1286204 114.838004,45.4473937 114.623852,42.7002336 C114.618163,39.6381442 115.356894,36.6206578 116.776296,33.9081776 C117.062634,33.50588 117.241481,33.0369861 117.295852,32.546028 L117.295852,32.546028 Z"/>
    <path fill="#F48534" d="M141.987111,42.167757 C142.03338,44.9613518 140.965592,47.6582268 139.020051,49.6615599 C137.074509,51.6648929 134.41164,52.8094921 131.620741,52.8420561 C128.798561,52.8817402 126.077604,51.7906085 124.063325,49.8114553 C122.049047,47.8323021 120.908556,45.1293222 120.89563,42.303972 C120.855581,39.4781997 121.955023,36.7555461 123.945452,34.7514047 C125.93588,32.7472634 128.649261,31.6308266 131.472296,31.6544393 C134.267952,31.6243605 136.958043,32.721946 138.936147,34.6997686 C140.914252,36.6775913 142.013868,39.3691738 141.987111,42.167757 L141.987111,42.167757 Z"/>
    <path fill="#F48634" d="M117.295852,52 C118.536545,53.4655074 119.897942,54.8241717 121.365704,56.0616822 C128.445185,61.306778 138.361985,60.2289206 144.151926,53.5850467 L145.017852,52.6191589 C145.438444,52.9163551 145.27763,53.3002336 145.27763,53.6098131 L145.27763,65.6338785 C145.27763,66.4016355 145.166296,66.7978972 144.238519,66.7978972 C135.245259,66.7978972 126.252,66.7978972 117.258741,66.7235981 L117.295852,52 Z"/>
    <path fill="#727377" d="M239.576963 39.2081776C242.380914 47.603972 245.184864 56.0038941 247.988815 64.4079439 250.339185 71.408567 252.706049 78.4174455 255.089407 85.4345794 255.237852 85.8556075 255.176 86.45 255.806889 86.6728972L272.259481 39.2329439C273.605194 38.9487074 274.988195 38.8859688 276.354074 39.0471963 278.061383 38.9186582 279.777326 38.9642981 281.475407 39.1834112L281.475407 39.1834112C281.668832 39.6405461 281.72055 40.1453211 281.623852 40.632243L281.623852 92.1214953C281.623852 92.6044393 281.784667 93.1121495 281.450667 93.5579439 279.273481 93.5579439 277.096296 93.496028 274.919111 93.5579439 273.682074 93.5579439 273.459407 93.2235981 273.459407 92.0719626L273.459407 56.1607477 273.459407 49.1518692C272.902741 49.2633178 272.927481 49.696729 272.816148 50.0434579 268.173136 64.135514 263.542494 78.2316978 258.924222 92.3320093 258.602593 93.2978972 258.206741 93.7065421 257.19237 93.5703271 256.450864 93.5241659 255.70721 93.5241659 254.965704 93.5703271 251.873111 93.5703271 251.84837 93.5703271 250.945333 90.7221963 249.027926 84.6915888 247.14763 78.6609813 245.242593 72.6303738 243.59321 67.388162 241.914963 62.1500779 240.207852 56.9161215 239.304815 54.1299065 238.389407 51.3436916 237.214222 48.5698598L237.214222 50.0682243 237.214222 91.960514C237.214222 93.1988318 236.966815 93.7189252 235.606074 93.5950935 234.029821 93.456588 232.444476 93.456588 230.868222 93.5950935 229.420889 93.7313084 229.198222 93.1369159 229.210593 91.8490654L229.210593 41.0780374 229.210593 39.2948598C229.408519 38.9728972 229.730148 39.0595794 230.002296 39.0595794L238.871852 39.0595794C239.117299 39.0105342 239.372103 39.0642327 239.576963 39.2081776L239.576963 39.2081776zM473.921259 37.1401869L476.395333 37.1401869C476.890148 37.3878505 477.459185 37.1401869 477.96637 37.3383178 484.997326 38.1354135 491.304224 42.0370211 495.161185 47.9754673 497.713162 52.0650098 499.272274 56.6962968 499.713481 61.4978972 499.936148 62.1046729 499.65163 62.736215 499.923778 63.367757L499.923778 67.342757C499.614519 68.036215 499.923778 68.803972 499.701111 69.4974299 499.222949 74.1397524 497.723178 78.6183481 495.30963 82.611215 491.835548 88.2125326 486.129017 92.0538886 479.63637 93.1616822 473.526432 94.4560374 467.153079 93.2762139 461.90963 89.8801402 456.960342 86.5957158 453.386391 81.6081532 451.864889 75.8623832 451.251829 73.9790639 450.837228 72.0367217 450.627852 70.0670561 450.405185 69.5593458 450.627852 68.9897196 450.405185 68.4820093L450.405185 62.4266355C450.677333 61.9436916 450.405185 61.3740654 450.615481 60.8787383 451.008253 55.8154879 452.774778 50.9557244 455.724444 46.8238318 459.53025 41.4168771 465.511305 37.9503383 472.090444 37.3383178 472.659481 37.1401869 473.327481 37.4126168 473.921259 37.1401869zM383.333037 70.6614486C382.696234 75.1990597 381.051939 79.5362004 378.520963 83.3542056 375.216887 88.2718111 370.134088 91.7126906 364.344519 92.9511682 356.922296 94.5485981 349.920667 93.3598131 343.883926 88.5922897 340.849023 86.1708611 338.453464 83.0415059 336.907037 79.478271 335.804029 76.7652451 334.975202 73.9484654 334.432963 71.0700935 334.316539 70.2500018 334.271012 69.4213842 334.296889 68.5934579 334.142732 66.4250161 334.142732 64.2483483 334.296889 62.0799065 334.574515 56.6743515 336.347618 51.4524309 339.418222 46.9971963 342.782987 42.0822724 347.989306 38.7373112 353.854444 37.7221963L355.734741 37.3630841C356.340889 37.1154206 356.971778 37.3630841 357.602667 37.1401869L360.076741 37.1401869C360.670519 37.425 361.313778 37.1401869 361.932296 37.3630841 367.341566 38.0045137 372.363005 40.4981457 376.145852 44.4214953 380.263626 48.8918852 382.775247 54.6087967 383.283556 60.6682243 383.394889 61.6464953 383.518593 62.6123832 383.629926 63.5906542 383.779975 64.8658413 383.779975 66.1542521 383.629926 67.4294393L383.555704 69.1630841C383.271185 69.6088785 383.568074 70.1785047 383.333037 70.6614486zM187.621407 37.3383178C192.000519 37.8955607 196.181704 38.9109813 199.707259 41.821028 202.273693 44.0063744 204.072921 46.9575583 204.840963 50.2415888 204.989407 50.811215 205.08837 51.3932243 205.212074 51.9628505 205.401337 52.435781 205.401337 52.963518 205.212074 53.4364486 203.08437 53.4364486 200.956667 53.3621495 198.828963 53.4364486 197.591926 53.4364486 197.146593 53.0278037 196.923926 51.7523364 196.330148 48.3098131 195.179704 45.1025701 191.975778 43.0841121 190.752925 42.3263711 189.396753 41.8093992 187.980148 41.5609813 187.510074 41.263785 186.941037 41.5609813 186.458593 41.3380841L184.058741 41.3380841C183.576296 41.5733645 183.01963 41.263785 182.549556 41.5733645 177.71096 42.0869362 174.018958 46.1390493 173.952148 51.0093458 173.761539 51.5460056 173.761539 52.1320318 173.952148 52.6686916 173.865556 55.9130841 175.832444 57.8077103 178.36837 59.2689252 181.176444 60.8911215 184.368 61.3245327 187.448222 62.0922897 191.913926 63.1943925 196.37963 64.271729 200.4 66.6864486 206.770741 70.5004673 209.195333 78.6485981 204.210074 85.7565421 201.66175 89.1720395 198.034611 91.6246385 193.917926 92.7158879 190.417111 93.842757 186.842074 93.5331776 183.267037 93.5827103 182.772222 93.3226636 182.203185 93.5827103 181.70837 93.3598131 177.75514 93.0708265 173.958257 91.6953348 170.735852 89.3848131 166.921449 86.5927063 164.46725 82.3136586 163.98163 77.6084112 163.907407 76.9892523 163.214667 76.3081776 163.721852 75.8128505 164.229037 75.3175234 165.218667 75.6147196 165.98563 75.5899533 167.804074 75.5280374 169.622519 75.5280374 171.453333 75.4908879 172.096593 75.9738318 171.453333 76.7292056 171.886296 77.311215 172.183185 81.8063084 173.519185 85.7936916 177.923037 87.8121495 180.989273 89.1806284 184.348769 89.7595708 187.69563 89.4962617 192.604318 89.2140088 196.832926 85.9359054 198.334148 81.2490654 199.855704 76.1719626 198.433111 72.3950935 193.596296 69.7946262 189.885185 67.8257009 185.901926 66.921729 181.918667 65.8567757 177.935407 64.7918224 173.655259 63.6525701 170.179185 60.9035047 167.884991 59.2952412 166.340548 56.8242546 165.899037 54.0556075 165.688741 53.5478972 165.899037 52.978271 165.688741 52.4829439L165.688741 52C165.973259 51.4056075 165.688741 50.7616822 165.911407 50.1301402 166.575513 45.0819482 169.996784 40.8260082 174.780963 39.096729 177.293232 38.1403701 179.923028 37.5280598 182.599037 37.2764019 184.271798 37.1515814 185.952224 37.1722977 187.621407 37.3383178L187.621407 37.3383178zM397.521852 53.2383178C397.633185 56.0121495 399.315556 57.7457944 401.492741 59.0584112 404.436889 60.8415888 407.82637 61.3121495 411.104519 62.1294393 415.669185 63.2563084 420.270963 64.3212617 424.291333 66.921729 428.213764 69.2329604 430.55148 73.5136978 430.377556 78.0665888 430.244286 82.5819769 427.987867 86.768936 424.291333 89.3600467 420.732483 92.0710846 416.392929 93.5567484 411.920963 93.5950935L406.886222 93.5950935C406.391407 93.3226636 405.82237 93.5950935 405.327556 93.3721963 401.609653 93.1244812 398.022039 91.9031734 394.924074 89.8306075 390.603901 86.908138 387.866747 82.1588263 387.501852 76.9521028 387.501852 76.4567757 387.143111 75.9119159 387.712148 75.503271 389.716148 75.503271 391.732519 75.503271 393.736519 75.6023364 394.256074 75.6023364 394.812741 75.4413551 395.307556 75.7880841 395.616815 76.3700935 395.245704 77.0264019 395.554963 77.6331776 396.235333 85.1869159 399.266074 87.775 405.624444 89.1123832 409.842741 90.003972 413.986815 89.9049065 417.697926 87.1682243 420.096873 85.4583648 421.748547 82.8918522 422.312074 79.9983645 422.608963 79.5154206 422.312074 78.9581776 422.534741 78.4628505 422.411037 73.9429907 420.877111 71.3425234 415.743407 69.088785 412.44871 67.7508458 409.052562 66.6783575 405.587333 65.8815421 401.356667 64.7794393 397.101259 63.6401869 393.612815 60.8044393 391.138741 58.8107477 389.394519 56.3588785 389.406889 52.9906542 389.406889 43.2327103 395.592074 39.4806075 402.037037 38.0565421 403.274074 37.771729 404.647185 37.5983645 405.958444 37.3754673 407.728104 37.2194078 409.508044 37.2194078 411.277704 37.3754673 415.755778 37.9327103 420.097778 38.9728972 423.648074 42.0439252 426.641903 44.7290408 428.507379 48.4505793 428.86837 52.4581776 428.967333 53.2383178 428.658074 53.4859813 427.878741 53.4735981 425.899481 53.4735981 423.920222 53.3992991 421.953333 53.4735981 421.000815 53.4735981 420.716296 52.9658879 420.642074 52.2352804 420.315258 49.6313891 419.336582 47.1523503 417.796889 45.028271 416.189735 42.974962 413.790293 41.6975334 411.191111 41.5114486 410.012518 41.1787925 408.77571 41.106958 407.566593 41.3009346 407.084148 41.536215 406.515111 41.2266355 406.045037 41.5238318 401.384044 41.9571985 397.739903 45.7367117 397.47237 50.4149533 397.262063 51.34639 397.279036 52.3148388 397.521852 53.2383178zM312.908519 39.1214953L315.493926 39.1957944C315.988741 39.4558411 316.557778 39.1957944 317.064963 39.4186916 319.676055 39.8065017 322.192671 40.6756332 324.487185 41.9820093 327.507822 44.0687338 329.618464 47.2313307 330.387852 50.8235981 330.536296 51.3932243 330.635259 51.9752336 330.758963 52.5448598 330.911575 54.1179507 330.911575 55.7021427 330.758963 57.2752336 330.292318 60.5311662 328.944795 63.5972774 326.862296 66.1415888 325.427437 67.751495 323.623179 68.9881596 321.604889 69.7450935 319.192658 70.6632195 316.649467 71.1899418 314.071333 71.3053738 309.197407 71.5158879 304.311111 71.3053738 299.437185 71.4044393 298.901737 71.3059523 298.349521 71.3573745 297.841407 71.5530374 297.674469 73.769677 297.637295 75.9941981 297.730074 78.2151869L297.730074 92.3320093C297.730074 93.3226636 297.445556 93.5703271 296.493037 93.5703271 294.663427 93.4763018 292.830203 93.4763018 291.000593 93.5703271 289.763556 93.6570093 289.479037 93.1740654 289.479037 91.9852804L289.479037 44.0128505 289.479037 39.2577103C289.701704 38.8614486 290.097556 39.0100467 290.406815 39.0100467L312.228148 39.0100467C312.459882 39.0046161 312.690601 39.0424092 312.908519 39.1214953L312.908519 39.1214953zM444.714815 93.5579439C442.488148 93.5579439 440.261481 93.496028 438.034815 93.5579439 436.797778 93.5579439 436.476148 93.2359813 436.476148 91.9976636L436.476148 55.3063084C436.476148 49.9567757 436.476148 44.6196262 436.414296 39.2081776 436.52563 38.9109813 436.785407 38.9357477 437.032815 38.9357477L443.848889 38.9357477C444.628222 38.9357477 444.888 39.1834112 444.863259 39.9635514L444.863259 45.1521028 444.863259 91.886215C444.990752 92.4452107 444.938805 93.0302234 444.714815 93.5579439zM221.169852 93.5579439L213.153852 93.5579439C212.999548 93.0871531 212.957189 92.5867992 213.030148 92.096729L213.030148 40.7436916C213.030148 38.8242991 212.832222 39.0471963 214.811481 39.0348131L219.549333 39.0348131C221.516222 39.0348131 221.318296 38.8242991 221.318296 40.7560748L221.318296 84.988785 221.318296 92.1091121C221.4043 92.5964804 221.352895 93.0981988 221.169852 93.5579439z"/>
    <path fill="#FEFEFE" d="M458.198519 65.6214953C458.334593 58.8850467 459.324222 52.5820093 463.394074 47.1953271 469.579259 39.0595794 480.489926 39.0224299 486.749333 47.0838785 489.713792 51.0806006 491.462088 55.8493162 491.784074 60.8168224 492.57051 66.8799542 491.813072 73.0437078 489.582148 78.7352804 488.36793 81.8562554 486.343789 84.5963775 483.718593 86.6728972 477.075704 91.7376168 468.243259 90.2268692 463.134296 83.1808411 460.33492 79.0799969 458.701547 74.2946535 458.408815 69.3364486 458.285111 68.036215 458.272741 66.7359813 458.198519 65.6214953zM342.040741 65.3366822C341.848854 60.0748193 342.971338 54.8481624 345.306519 50.1301402 347.222708 45.9912792 350.829822 42.8814365 355.202815 41.5981308 360.992148 40.0254673 366.917556 42.2915888 370.715259 47.4429907 373.279551 51.0440185 374.876881 55.2440175 375.354148 59.6404206 376.421448 66.223825 375.646458 72.9745077 373.115111 79.1439252 371.854703 82.2351684 369.770886 84.9208069 367.090741 86.9081776 364.053051 89.1227752 360.260717 90.0381988 356.54857 89.4529304 352.836424 88.8676619 349.508771 86.8296795 347.298148 83.7876168 343.587037 79.0696262 342.35 73.5343458 341.978889 67.689486 341.991259 66.921729 342.040741 66.1292056 342.040741 65.3366822zM297.754815 55.2196262L297.754815 44.5329439C297.754815 43.492757 297.928 43.0345794 299.115556 43.0841121 303.408074 43.2450935 307.774815 42.8983645 312.005481 43.3193925 318.413333 43.9509346 322.371852 48.1859813 322.470815 54.5880841 322.519682 55.7257402 322.465859 56.8654898 322.31 57.9934579 321.32037 63.925 317.732963 67.0579439 311.337481 67.342757 307.143926 67.5285047 302.938 67.342757 298.732074 67.4294393 297.730074 67.4294393 297.767185 66.9093458 297.767185 66.1911215 297.754815 62.5380841 297.754815 58.8850467 297.754815 55.2196262z"/>
  </g>
</svg>
