<svg xmlns="http://www.w3.org/2000/svg" width="1806" height="355" viewBox="0 0 1806 355">
  <g fill="none" transform="translate(3 3)">
    <path fill="#7C7D81" d="M722.469551,312.358388 C703.651786,309.613719 690.774403,303.822767 680.307895,293.398397 C676.289132,289.395709 671.694062,283.444909 669.73985,279.712288 C665.754335,272.099807 661.712309,257.557488 662.590153,253.98928 C663.178097,251.599336 663.428506,251.560071 676.208562,251.854095 L689.227995,252.153566 L690.606077,260.425526 C692.751778,273.305043 695.757595,280.115735 702.091722,286.450162 C706.73956,291.098231 709.071706,292.467514 716.606183,294.972165 C724.462068,297.583553 727.252176,297.962715 738.94971,298.008109 C751.92152,298.058546 752.524569,297.957672 759.363789,294.590355 C767.73343,290.46972 774.296645,283.757443 778.231812,275.293708 C782.012485,267.162265 782.251509,253.442174 778.729226,246.742809 C772.924072,235.701516 761.729777,229.782516 730.226219,221.096807 C697.609349,212.104148 688.029309,207.55921 677.885988,196.265718 C671.706608,189.385637 669.195266,182.322657 669.300953,172.120866 C669.482897,154.558214 679.846265,138.799475 696.612894,130.58988 C707.368445,125.323538 715.145652,123.501631 729.853215,122.802937 C770.203654,120.886019 796.911903,137.996388 803.013159,169.672125 C804.596184,177.890686 804.494759,177.956178 790.185606,177.956178 C781.393448,177.956178 777.311212,177.555454 776.591519,176.621697 C776.025766,175.887709 774.803389,172.11871 773.875034,168.246113 C769.112142,148.377772 759.157498,139.039859 740.4562,136.897713 C736.690039,136.466349 731.13247,136.67188 727.179234,137.38872 C709.315293,140.628241 698.666627,152.40269 697.515288,170.18883 C697.073857,177.008601 697.354527,178.593491 699.94007,183.878318 C705.296933,194.827891 711.942836,198.215206 743.797005,206.231487 C783.768627,216.290591 797.274554,224.206666 805.880596,242.619842 C808.494383,248.21221 808.839761,250.196235 808.841148,259.626663 C808.842207,269.77779 808.64773,270.70175 804.87674,278.42402 C797.934444,292.640426 788.233664,301.414893 772.578442,307.638344 C759.074268,313.006633 739.534175,314.847214 722.469576,312.358262 L722.469551,312.358388 Z M829.881489,312.257513 C828.905574,311.281553 828.600443,289.691436 828.600443,221.599767 C828.600443,172.442643 828.892083,131.463264 829.248405,130.534475 C829.792471,129.116532 832.083223,128.845773 843.535657,128.845773 C856.777671,128.845773 857.19367,128.915124 857.818621,131.247846 C858.996149,135.642053 858.579809,309.24351 857.386394,311.473592 C856.389927,313.335483 855.046431,313.538619 843.721913,313.538619 C835.376884,313.538619 830.732653,313.108642 829.881489,312.257513 L829.881489,312.257513 Z M884.616556,312.232295 C884.329077,311.48078 884.219381,270.029547 884.370686,220.119787 L884.646817,129.374784 L902.00511,129.081365 C919.171625,128.791225 919.37513,128.814804 920.417871,131.216537 C920.997872,132.552254 933.135652,168.151228 947.390688,210.32539 C961.645724,252.49954 973.776696,287.018274 974.348249,287.033683 C974.919424,287.048814 987.490314,252.302759 1002.28261,209.819606 C1017.07503,167.336452 1029.4815,131.724163 1029.85257,130.681159 C1030.4641,128.962396 1031.99442,128.812433 1046.19271,129.079776 L1061.85816,129.374708 L1061.85816,221.187304 L1061.85816,312.999824 L1049.05968,313.302447 C1037.95342,313.564721 1036.0833,313.365494 1034.91485,311.763985 C1033.86328,310.325262 1033.56836,294.271591 1033.56836,238.384563 C1033.56836,199.038733 1033.17623,167.303075 1032.69836,167.860886 C1032.21923,168.418722 1021.34131,200.822673 1008.5243,239.869726 C995.707288,278.916766 984.750945,311.464766 984.17687,312.198754 C983.46826,313.105363 979.763189,313.533323 972.625899,313.533323 C963.690858,313.533323 961.977334,313.253397 961.173654,311.665002 C960.654175,310.637343 949.747131,277.248655 936.93655,237.467652 C924.126094,197.686636 913.248555,165.138536 912.76438,165.138536 C912.280205,165.138536 911.760726,198.407258 911.609421,239.069035 L911.335812,312.999445 L898.237626,313.299547 C888.351258,313.525254 885.011461,313.261719 884.617691,312.231538 L884.616556,312.232295 Z M1088.67198,311.875451 C1087.81711,309.648016 1087.80576,132.755794 1088.66026,130.529141 C1089.23648,129.027485 1094.12803,128.840439 1132.82317,128.840439 C1182.66479,128.840439 1190.21741,129.590567 1202.94125,135.804221 C1219.72458,144.000286 1229.42712,161.256192 1229.33961,182.753656 C1229.23874,207.271529 1216.83517,226.42182 1196.52669,233.409257 C1185.29825,237.272611 1178.3511,238.024202 1147.79438,238.681437 L1117.36955,239.33586 L1116.8362,276.167659 L1116.30285,312.999445 L1102.81783,313.297025 C1091.22638,313.552994 1089.24013,313.347462 1088.67299,311.875199 L1088.67198,311.875451 Z M1177.68536,220.888236 C1188.84622,216.464952 1195.82438,208.266416 1198.65126,196.255971 C1201.26101,185.167368 1200.04212,171.359125 1195.69464,162.76477 C1190.84848,153.184291 1179.02945,145.79787 1165.40863,143.837147 C1157.31068,142.671416 1121.2785,142.310222 1118.52425,143.367198 C1117.02684,143.941804 1116.83569,148.455534 1116.83569,183.223832 C1116.83569,204.788566 1117.1963,222.79344 1117.63635,223.234665 C1118.07639,223.675865 1130.4468,223.852017 1145.12549,223.626058 C1169.47771,223.251183 1172.32779,223.01148 1177.68536,220.888261 L1177.68536,220.888236 Z M1311.66129,312.77046 C1286.16092,309.243762 1263.49536,293.08039 1251.48443,269.857102 C1242.48785,252.462267 1238.92236,234.4841 1239.92627,211.578579 C1241.20454,182.412309 1250.59652,159.937661 1268.34127,143.582388 C1277.59241,135.055707 1285.16458,130.514388 1296.97075,126.4121 C1305.02129,123.614812 1308.25618,123.095283 1320.20168,122.681421 C1331.77156,122.280571 1335.64118,122.574241 1343.46892,124.444404 C1381.70006,133.580708 1405.86126,166.104787 1407.96074,211.258795 C1409.87739,252.478054 1394.75575,284.928735 1365.33937,302.723487 C1351.74805,310.945136 1329.1062,315.183126 1311.66129,312.77046 L1311.66129,312.77046 Z M1336.19684,297.313714 C1347.80127,294.371205 1360.53116,284.121171 1367.76276,271.897327 C1377.1067,256.102903 1381.18121,236.338513 1380.19773,211.578579 C1379.47399,193.350925 1376.92072,182.222892 1370.36104,168.701738 C1349.91626,126.560297 1299.74353,125.667797 1278.2086,167.062477 C1271.41086,180.129267 1268.33761,193.277954 1267.6459,212.254539 C1266.98268,230.441454 1268.28264,241.382717 1272.7639,255.349698 C1283.26747,288.084127 1308.01939,304.458654 1336.19684,297.313714 L1336.19684,297.313714 Z M1483.00113,312.877891 C1450.55701,308.927899 1428.42027,291.885027 1421.64964,265.643587 C1420.68634,261.910437 1420.04506,257.346496 1420.22423,255.501489 L1420.54953,252.146933 L1433.24361,252.146933 C1447.82761,252.146933 1446.97185,251.549882 1448.69635,262.928979 C1451.66872,282.542776 1459.78811,291.328843 1479.71492,296.494361 C1492.91537,299.916276 1506.49798,299.232725 1516.25574,294.655545 C1530.32341,288.056474 1537.62814,277.073348 1538.33436,261.458683 C1538.68992,253.596878 1538.42262,251.981499 1535.89785,246.824266 C1531.06039,236.936195 1520.96371,230.782863 1499.14218,224.423723 C1492.02569,222.349869 1480.33704,218.943174 1473.16722,216.853269 C1443.39148,208.173977 1428.17932,194.956493 1426.6959,176.475341 C1425.17769,157.559772 1436.36805,138.955389 1454.38149,130.44747 C1467.58269,124.212431 1473.97569,122.966038 1492.60834,122.994712 C1511.23558,123.023713 1520.57864,124.958423 1532.60357,131.27826 C1546.23813,138.443955 1557.30745,153.235598 1560.04266,167.944082 C1561.94266,178.161281 1562.07228,178.065325 1546.83124,177.715681 L1533.75764,177.415705 L1531.56461,168.87499 C1525.67041,145.922374 1514.2971,136.741938 1492.07462,136.999092 C1471.66804,137.235264 1459.02692,147.002261 1455.27028,165.435599 C1453.92089,172.05695 1454.89832,179.626282 1457.82241,185.209067 C1462.03258,193.245763 1473.24375,199.543799 1490.47331,203.551252 C1530.05081,212.75663 1544.53305,218.810347 1555.42194,230.700449 C1571.78528,248.568486 1569.99232,275.47566 1551.18478,294.284075 C1544.12541,301.343776 1532.47193,307.718413 1520.89814,310.851323 C1514.60576,312.554589 1490.80088,313.827625 1483.0005,312.877891 L1483.00113,312.877891 Z M1587.05607,312.231034 C1586.76986,311.479519 1586.6589,270.029295 1586.8102,220.119534 L1587.08634,129.374531 L1600.96437,129.374531 L1614.84241,129.374531 L1614.84241,221.187127 L1614.84241,312.999697 L1601.20999,313.298538 C1590.8953,313.524245 1587.45085,313.26071 1587.05633,312.230529 L1587.05607,312.231034 Z M1705.5828,312.770712 C1685.63329,310.011669 1665.22015,298.169256 1653.30315,282.44122 C1646.60528,273.6015 1639.69746,258.881428 1636.58198,246.809248 C1634.43068,238.473636 1634.10436,234.655574 1634.11836,217.984362 C1634.13097,201.718035 1634.49914,197.3162 1636.50506,189.312881 C1641.3656,169.926468 1649.66251,155.196195 1662.26278,143.58264 C1671.51796,135.052214 1679.09113,130.511589 1690.89226,126.417282 C1703.18689,122.151691 1722.46398,121.116555 1735.60718,124.016167 C1755.25004,128.349684 1770.78537,138.107791 1782.38022,153.39527 C1795.05538,170.107172 1800.77344,187.362384 1801.86144,212.183259 C1803.65869,253.185197 1787.90788,286.134651 1758.34069,303.224455 C1744.6789,311.12091 1722.57443,315.120584 1705.5828,312.770712 L1705.5828,312.770712 Z M1730.11835,297.313966 C1741.72278,294.371457 1754.45267,284.121424 1761.68427,271.897579 C1767.02268,262.873965 1771.85194,248.186664 1773.44392,236.13336 C1775.20662,222.787438 1774.15253,199.162947 1771.27673,187.558093 C1762.73571,153.092419 1737.79075,132.461253 1710.34952,137.167124 C1688.64954,140.888422 1672.20047,158.595551 1664.75224,186.251542 C1662.20112,195.724627 1661.95147,198.453421 1661.89801,217.450572 C1661.84757,235.593202 1662.14514,239.476063 1664.22154,247.664764 C1673.80656,285.473142 1699.74458,305.01586 1730.11835,297.313966 L1730.11835,297.313966 Z"/>
    <path fill="#1F7866" d="M0.273700542,321.591957 C-0.5236406,320.302962 -0.105619537,320.100304 8.8948303,317.412356 C24.7445855,312.678691 32.3444127,305.523467 69.6615665,260.200526 C101.387764,221.667964 99.504123,224.294989 97.7245962,221.062524 C92.8540205,212.215244 27.9932118,118.452471 23.175582,113.294473 C18.6511848,108.450435 15.9594241,106.556075 11.4350268,105.031901 C8.20636877,103.944177 5.5647429,102.421351 5.5647429,101.647714 C5.5647429,100.5018 15.5058536,100.241104 59.197753,100.241104 C94.0636595,100.241104 112.924124,100.6143 113.097586,101.307542 C113.244322,101.894102 110.482647,102.673381 106.960479,103.039361 C94.8012978,104.302814 90.9316405,107.461937 90.9838553,116.082452 C91.0153708,121.385951 91.6523612,122.529963 110.052499,150.361756 C131.271871,182.457892 131.652212,182.969573 133.70523,182.182434 C135.757,181.395736 161.330472,149.971531 167.919939,140.140009 C174.714735,130.002096 177.34968,123.382219 176.460817,118.682485 C174.83225,110.071681 168.366475,104.758925 157.813183,103.360199 C154.199998,102.881328 152.321727,102.127756 152.321727,101.157016 C152.321727,99.9225577 158.711537,99.7273443 191.457197,99.961351 C219.364856,100.160859 230.707862,100.586578 230.994199,101.445472 C231.241532,102.187457 229.203415,102.923522 225.68605,103.362605 C218.095262,104.310144 210.130914,108.124647 203.974495,113.761202 C199.183464,118.147667 143.978803,183.673999 140.130413,189.542293 L138.298129,192.336268 L162.559613,228.401172 C216.865705,309.127718 218.396486,311.172427 228.183676,316.058873 C231.848281,317.888582 235.490321,319.385525 236.277098,319.385525 C237.06385,319.385525 237.70761,320.105972 237.70761,320.985119 C237.70761,322.385457 231.12577,322.584713 184.875092,322.584713 C140.964198,322.584713 132.042575,322.339106 132.042575,321.13009 C132.042575,320.210639 133.841793,319.428979 136.933421,319.005653 C151.046284,317.072915 155.691499,309.029349 149.338991,297.524362 C143.578721,287.092035 106.306243,233.007412 104.87703,233.007412 C104.077168,233.007412 94.3727505,244.087826 83.31153,257.630558 C51.4825792,296.600124 49.0700834,301.485814 57.0042896,310.90692 C61.0711328,315.735805 67.4954585,318.563938 75.7412643,319.15541 C80.8661446,319.523191 82.9456985,320.092495 82.9456985,321.128453 C82.9456985,322.333816 75.881193,322.584713 41.9167294,322.584713 C17.7457078,322.584713 0.635460206,322.176628 0.273700542,321.592209 L0.273700542,321.591957 Z M251.265321,321.911876 C249.673286,320.321225 252.082706,319.385021 257.78292,319.379479 C261.123685,319.376205 265.767387,318.842923 268.102254,318.195528 C273.542944,316.686367 279.834275,310.400592 281.344723,304.964616 C283.231843,298.173016 282.898889,121.783494 280.98885,116.432549 C278.058618,108.223583 271.645537,104.251047 259.492356,103.116708 C255.1123,102.707867 251.420743,101.893459 251.288882,101.307 C251.131431,100.606454 270.456925,100.240562 307.617296,100.240562 C344.421895,100.240562 364.288132,100.613129 364.47938,101.307 C364.644143,101.904896 361.216181,102.705121 356.67764,103.128371 C342.820204,104.420667 335.636217,110.275182 334.311093,121.355735 C333.946396,124.405368 333.794743,167.295313 333.974255,216.666763 C334.29836,305.85724 334.314748,306.452365 336.535681,309.443228 C337.765036,311.098871 340.726821,313.835941 343.117395,315.525591 C346.731537,318.080029 348.92142,318.708909 356.114156,319.257935 C360.871805,319.620678 364.874319,320.397804 365.008626,320.984615 C365.281297,322.174865 252.449786,323.094946 251.265384,321.911624 L251.265321,321.911876 Z M377.789456,321.251886 C378.061497,320.428158 381.256787,319.672444 386.150167,319.274183 C390.506347,318.920257 395.031098,318.248931 396.205149,317.783412 C401.080301,315.851303 405.173176,311.733923 407.049922,306.873801 C408.900888,302.080561 409.013032,296.57972 409.013032,210.578456 C409.013032,123.565618 408.921007,119.161973 407.004653,114.917104 C403.591781,107.355671 394.747736,102.925399 383.041495,102.913169 C378.963898,102.908912 377.475259,102.529141 377.793818,101.574233 C378.401688,99.7522576 490.808762,99.6109014 491.416103,101.431277 C491.675412,102.208403 489.033269,102.799636 483.802736,103.135022 C472.695995,103.847156 466.587101,107.065313 462.954692,114.117634 L460.244564,119.379367 L460.244564,211.651103 C460.244564,303.183777 460.262213,303.956998 462.475846,308.188365 C463.864304,310.842684 466.654796,313.662378 469.863348,315.65318 C474.20904,318.349441 476.332992,318.911944 483.375084,319.231863 C489.62697,319.515256 491.730602,319.985058 491.730602,321.097973 C491.730602,322.351198 482.733984,322.584713 434.539862,322.584713 C389.263945,322.584713 377.440844,322.306359 377.789456,321.25176 L377.789456,321.251886 Z M506.673128,200.482472 C506.673128,189.045373 506.956389,179.687747 507.302554,179.687747 C507.64872,179.687747 510.582255,182.047829 513.821452,184.932363 C536.505826,205.133059 570.488606,205.018468 592.776642,184.6661 L598.462926,179.473666 L598.462926,200.3754 L598.462926,221.277134 L552.568021,221.277134 L506.673102,221.277134 L506.673128,200.482472 Z M541.442887,172.5957 C533.984148,170.308331 523.739833,159.972786 521.124605,152.096485 C518.294542,143.573129 519.190816,131.814612 523.236695,124.38747 C536.046999,100.871155 570.156421,100.871155 582.966724,124.38747 C587.012591,131.814612 587.908878,143.573129 585.078802,152.096485 C582.524991,159.787838 572.44975,170.02155 564.918967,172.573394 C558.497213,174.74946 548.496904,174.758956 541.442887,172.596066 L541.442887,172.5957 Z M506.929613,50.9204119 L507.206823,0 L552.568071,0 L597.929319,0 L598.206655,50.3872181 C598.35919,78.100188 598.189007,100.774436 597.829856,100.774436 C597.470076,100.774436 594.782942,98.6249719 591.858408,95.9978463 C570.429105,76.7478004 535.175735,77.0024381 513.755874,96.5619866 C510.576355,99.4653383 507.677412,101.840824 507.313749,101.840824 C506.95006,101.840824 506.77723,78.9266366 506.929764,50.9204119 L506.929613,50.9204119 Z"/>
  </g>
</svg>
