<svg xmlns="http://www.w3.org/2000/svg" viewBox="0 0 549.25 399.22"><defs><style>.a{fill:#dededd;}.a,.f,.g,.h,.i,.j{stroke:#000;stroke-width:0.5px;}.b{fill:#0093dd;}.c{fill:#f7d34d;}.d{fill:#da251d;}.e,.i{fill:#fff;}.f{fill:#c2d0da;}.h{fill:#1f1a17;}.j{fill:none;}</style></defs><title>logo-provincia</title><path class="a" d="M361.16,194c0,67.76-39.11,122.69-87.35,122.69S186.45,261.76,186.45,194,225.56,71.31,273.81,71.31,361.16,126.24,361.16,194Z" transform="translate(-1.85)"/><path class="b" d="M172.29,284.49c-13.7-2.81-26.28-8.2-40.86-20.93a172.24,172.24,0,0,1-9.5-18.81L157,261.42A121.86,121.86,0,0,0,172.29,284.49Zm-21.1-33.86-33.62-16.8q-3.24-8.84-6-18.63l31.8,13.32A145.05,145.05,0,0,0,151.19,250.63Zm-9.91-30.87-31.91-13.14c-1.47-6.21-2.82-12.46-4-18.74l33.25,16C139.28,209.41,140.22,214.75,141.28,219.75Zm-3.37-23.35-33.71-15.5q-1.18-7.31-2.14-15l35.34,17.47C137.4,187.78,137.6,192.27,137.91,196.41Zm5.59-67L91.69,101.6,88.63,82.67l59.08,33.7A106.28,106.28,0,0,0,143.5,129.39ZM139,151.91,96.23,129.76,93.69,114,140.79,141C140.21,144.58,139.48,148.27,139,151.91Zm21.66-60.08-54-45c12.89-6.63,18.61-8.73,30.37-1.29,13.68,10,24.43,21.39,36.2,32.31A111.08,111.08,0,0,0,160.66,91.84Zm18.2-18.61c-12.32-13.43-19.13-28.85-45.78-37.12l15.82-6.43c22.51,5.68,32.31,20.06,43.53,33.47A124.94,124.94,0,0,0,178.86,73.23Zm41.93-23.37q5-1.69,10.09-3C218.79,33.06,213,24,196.59,11.44c-11.11-8.15-27-10.75-42.86-4.58C125.51,18.86,97,32.11,69,37.94l1,7.2c22.82-4.72,47.18-11.47,74.59-25.52,18.92-9.54,33.1-8.62,47.44.33C203.86,28.31,211.78,39.47,220.78,49.86Zm-72,235.88c20.33,24.84,45,34.22,74.51,37.46a154.34,154.34,0,0,1-36.59-24l-.43-.24ZM212.09,53c-4.22,1.74-8.21,3.71-12.22,5.84-9.41-13-18.95-25.88-36.8-34.63,9.95-3.23,19.5.85,24.69,3.42C199.62,33.74,206.64,45.94,212.09,53ZM156.2,98.32,97.89,50.41,78.47,58.3l72.88,49A85.93,85.93,0,0,1,156.2,98.32Zm-55.56,58.73-2.38-14.72,39.84,19.72c-.43,4.49-.55,9.07-.88,13.54Z" transform="translate(-1.85)"/><path class="b" d="M376.1,284.49c13.7-2.81,26.28-8.2,40.86-20.93a172.24,172.24,0,0,0,9.5-18.81l-35.06,16.67A121.86,121.86,0,0,1,376.1,284.49Zm21.1-33.86,33.62-16.8q3.24-8.84,6-18.63L405,228.52A145.05,145.05,0,0,1,397.2,250.63Zm9.91-30.87L439,206.62c1.47-6.21,2.82-12.46,4-18.74l-33.25,16C409.12,209.41,408.17,214.75,407.11,219.75Zm3.37-23.35,33.71-15.5q1.18-7.31,2.14-15L411,183.34C411,187.78,410.79,192.27,410.48,196.41Zm-5.59-67,51.81-27.8,3.06-18.93-59.08,33.7A106.29,106.29,0,0,1,404.89,129.39Zm4.5,22.52,42.77-22.16L454.7,114,407.6,141C408.19,144.58,408.91,148.27,409.39,151.92ZM387.73,91.84l54-45c-12.89-6.63-18.61-8.73-30.37-1.29-13.68,10-24.43,21.39-36.2,32.31A111.08,111.08,0,0,1,387.73,91.84Zm-18.2-18.61c12.32-13.43,19.13-28.85,45.78-37.12L399.5,29.68C377,35.36,367.19,49.74,356,63.15A124.94,124.94,0,0,1,369.53,73.23ZM327.61,49.86q-5-1.69-10.09-3C329.6,33.06,335.44,24,351.8,11.44c11.11-8.15,27-10.75,42.86-4.58,28.23,12,56.77,25.25,84.74,31.08l-1,7.2c-22.82-4.72-47.18-11.47-74.59-25.52-18.92-9.54-33.1-8.62-47.44.33C344.53,28.31,336.61,39.47,327.61,49.86Zm72,235.88c-20.33,24.84-45,34.22-74.51,37.46a154.34,154.34,0,0,0,36.59-24l.43-.24ZM336.31,53c4.22,1.74,8.21,3.71,12.22,5.84,9.41-13,18.95-25.88,36.8-34.63-9.95-3.23-19.5.85-24.69,3.42C348.78,33.74,341.75,45.94,336.31,53Zm55.89,45.3L450.5,50.41l19.42,7.89-72.88,49A85.93,85.93,0,0,0,392.19,98.32Zm55.56,58.73,2.38-14.72-39.84,19.72c.43,4.49.55,9.07.88,13.54Z" transform="translate(-1.85)"/><path class="b" d="M248.74,44.42s9.54-14.81,19.66-24.52c9.85-9.45,12.49-9.08,23.6-8.79s12.72-.81,21.28-3.7c8.12-2.74,13,2.31,13,2.31l4.63-3.47S327,.12,320.91,0c-6.46-.12-5.38,2.43-16.43,4.16S291.25.41,276,6.25c-17.17,6.59-32.85,31.93-32.85,31.93Z" transform="translate(-1.85)"/><path class="b" d="M288.53,43.73h9.25c6.06-13.1,10-28.09,25.68-30.31C313.59,7.6,297.41,15.34,288.53,43.73Z" transform="translate(-1.85)"/><path class="c" d="M302.47,164.39l52.94-14.23a149.75,149.75,0,0,0-4.73-14.46l-49.08,22.6A26.37,26.37,0,0,1,302.47,164.39ZM300.16,154l42.28-35.85A119.54,119.54,0,0,0,335,106.5L296.77,148A34.31,34.31,0,0,1,300.16,154Zm-7.31-10,28.8-52.6a84.62,84.62,0,0,0-11.36-8.85l-23.71,57.25A36.39,36.39,0,0,1,292.85,143.95Zm-10.77-5.86,16.18-61.89a75.84,75.84,0,0,0-15.78-4.27l-6.38,65.2A23.56,23.56,0,0,1,282.08,138.08Zm-11.18-1c-1.67.19-3.33.5-5,.86L249.33,76.34A58.82,58.82,0,0,1,264.78,72Zm-9.56,2.57L236.75,82.88a69.53,69.53,0,0,0-11.29,9.19l28.81,52.11A29.08,29.08,0,0,1,261.34,139.64ZM212.8,106.37,251.5,147a28.23,28.23,0,0,0-4.4,6.9l-42.18-34.82C207.18,114.48,211,108.28,212.8,106.37ZM197,135.55l48.51,22.75a27.72,27.72,0,0,0-.87,6.9l-52.41-15A128.11,128.11,0,0,1,197,135.55ZM245,169.24a24.92,24.92,0,0,0,.94,4l-58.23,0q.62-5.11,1.54-10.07Zm113.33-6.37q.95,5.09,1.59,10.34l-58.57.08a25.92,25.92,0,0,0,1.06-5.12Z" transform="translate(-1.85)"/><path class="d" d="M273.62,58c44.74.57,70.4,23.46,87.89,57.45,0,0-1.86-7.07,7.79-21.75,7,16.4-.31,21.59-3.24,32.39-1.62,10.15.8,14.92,4.63,21.28-3.36-8.16,3.21-18.87,12-27.76,2.86,5.85,2.64,21.07-5.55,31.46s-10.43,18.72-9.72,30.07c0,.35,6.85-10.79,12.12-13.77s6.44-4.46,9.63-7.51c0,0,3.11,13.09-10.14,22s-11.45,33.37-11.45,33.37c-.36-.22,3.35-10.78,13.41-14.07a33.45,33.45,0,0,0,12.76-7.52c-3.77,10.94-4.64,18.62-16,24.54-27,17.57-21.8,30.85-24.21,45.15-.2-.09,2.93-13.62,16.69-17.67a76.1,76.1,0,0,0,17.34-7.52c-5.76,14.22-12.37,26.74-21.59,34-15.17,11.7-22.43,13.52-36,19.3s-33.9,19.35-33.37,36.32c2.89,18.51,22.67,16.62,34.35,15.7-22.76-2.5-32.66-16.84-15.7-31.41,9.94-8.44,22.24-15.11,35.66-20.94,48.18-25.08,43.14-55.56,45.48-73.29-3.78,7.62-6.64,13.31-14.4,15.7s-10.74,3.48-14.4,5.56c1.26-3.54,5.17-9.82,17.76-16.17,18.71-15.14,14.59-29.35,14-49.59-9.27,14.21-15.27,19.26-20,20.94-.17-6.09,1.51-4.66,10.47-13.74s5.36-27.37,5.56-39.59c-4.84,8.6-7.13,14-13.74,16.36,3-7.79,6.7-11.8,8.51-24.86s-1.76-21.06-4.58-30.75c-2.78,8.33-7,14.43-11.12,18,4.24-6.67,3.82-14.38,3.27-21.92-2.34-13.75-7.86-17.21-13.09-23.23,1.18,9.24.68,18.32-6.54,24.86-27.92-43-55.18-44.49-84-45.8-28.85,1.31-56.11,2.81-84,45.8-7.23-6.54-7.72-15.62-6.54-24.86-5.23,6-10.75,9.48-13.09,23.23-.55,7.54-1,15.25,3.27,21.92-4.16-3.57-8.35-9.67-11.12-18-2.82,9.7-6.38,17.69-4.58,30.75s5.48,17.08,8.51,24.86c-6.61-2.38-8.9-7.76-13.74-16.36.2,12.21-3.4,30.51,5.56,39.59s10.64,7.65,10.47,13.74c-4.69-1.68-10.69-6.73-20-20.94-.61,20.24-4.73,34.45,14,49.59,12.59,6.35,16.5,12.63,17.76,16.17-3.66-2.08-6.64-3.17-14.4-5.56s-10.62-8.09-14.4-15.7c2.33,17.72-2.71,48.21,45.48,73.29,13.42,5.83,25.72,12.5,35.66,20.94,17,14.57,7.05,28.9-15.7,31.41,11.68.92,31.46,2.8,34.35-15.7.53-17-19.81-30.53-33.37-36.32s-20.81-7.6-36-19.3c-9.23-7.28-15.83-19.81-21.59-34a76.1,76.1,0,0,0,17.34,7.52c13.75,4,16.89,17.58,16.69,17.67-2.41-14.3,2.8-27.57-24.21-45.15-11.39-5.92-12.26-13.6-16-24.54a33.45,33.45,0,0,0,12.76,7.52c10.06,3.29,13.77,13.85,13.41,14.07,0,0,1.8-24.43-11.45-33.37s-10.14-22-10.14-22c3.19,3.05,4.35,4.53,9.63,7.51s12.1,14.13,12.12,13.77c.72-11.36-1.52-19.68-9.72-30.07s-8.41-25.61-5.55-31.46c8.82,8.89,15.39,19.6,12,27.76,3.82-6.36,6.24-11.14,4.63-21.28-2.92-10.8-10.26-16-3.24-32.39,9.64,14.68,7.79,21.75,7.79,21.75C204.14,81.45,228.88,58.56,273.62,58Z" transform="translate(-1.85)"/><path class="e" d="M361.16,194c0,67.72-39.13,122.69-87.35,122.69s-87.35-55-87.35-122.69q0-2,0-3.93c60.12-11.87,85-37.44,91.57-39.21,3.54.6,17.26,7.16,37,16.18,12.7,5.8,28.52,9.34,44.34,11.92C359.92,184.31,361.16,188.46,361.16,194Z" transform="translate(-1.85)"/><path class="b" d="M275.81,324.2a47.79,47.79,0,0,0,13-2.17c-.48,8.77.14,17.09,8.79,22.21H276Zm-4.4,20H249.66c5.14-4.92,10.28-9.83,8.79-22a72.54,72.54,0,0,0,13,1.9Z" transform="translate(-1.85)"/><path class="f" d="M361.16,194c0,67.72-39.13,122.69-87.35,122.69-47.37,0-86-53-87.32-119.12,0-2.45-.42-4.39,0-5.85l174.57-.4C361.12,192.19,361.16,193.07,361.16,194Z" transform="translate(-1.85)"/><path class="g" d="M358,226.69c.28-1.4.59-2.77.83-4.19l-66.08,2.1Zm1.15-6.15q.33-2.08.6-4.18l-76.73,1ZM360,214q.23-2,.42-3.93L288,211.26Zm.62-6.24q.15-1.9.26-3.81l-66.7,1.39Zm.39-6.37q.07-1.55.11-3.12l-57.77.77Zm.15-5.2q0-1.15,0-2.3l-46.38.9Z" transform="translate(-1.85)"/><path class="h" d="M189.67,226.76c-.28-1.4-.59-2.77-.83-4.19l66.08,2.1Zm-1.15-6.15q-.33-2.08-.6-4.18l76.73,1Zm-.89-6.5q-.23-2-.42-3.93l72.37,1.15Zm-.62-6.24q-.15-1.9-.26-3.81l66.7,1.39Zm-.39-6.37q-.07-1.55-.11-3.12l57.77.77Zm-.15-5.2q0-1.15,0-2.3l46.38.9Zm9.38-4.87c13.42-3.61,26.85-7.19,38.78-13.29,13.67,5.28,21.41,2.74,30.31.2L285.29,169c22.9,7.18,46.92,12,74.12,10,.45,4.69,1.46,8.46,1.7,13.06Z" transform="translate(-1.85)"/><path class="g" d="M231.41,250.36l14,0c.18-5.34-1.55-13.65-6.18-15.49s-6.37-1.66-12.24.39l-14.12,1.15,15,1.41.31,1.57C230.91,245.51,231.11,247.87,231.41,250.36Z" transform="translate(-1.85)"/><path class="g" d="M226.44,260.08c-2.33,3.07-11.28,9.46-6.37,23.13,3.64,4.3,6.15,4.21,8.48,1.9Z" transform="translate(-1.85)"/><path class="g" d="M314.34,302.69c-12.12,8.94-25.91,14-40.53,14-15.93,0-30.88-6-43.74-16.48,1.26-18.32,65.76-19.73,90.73-3.34C322,297.64,314.08,301.2,314.34,302.69Z" transform="translate(-1.85)"/><path class="g" d="M225.6,282.47c2,5.91,2.68,12.87,6.94,17.12l2.54-2.78Z" transform="translate(-1.85)"/><path class="i" d="M230.85,248c-14.29,24.48-4.68,39.4,3.34,48.81l17-6.66c.18-10.18,2.49-26.09-2.94-40.24-2.87.16-4.67-4-6.3-3C237.66,249.51,233.22,248.43,230.85,248Z" transform="translate(-1.85)"/><path class="e" d="M235.09,236.55a1.39,1.39,0,1,1-2.78,0h0a1.39,1.39,0,1,1,2.78,0Z" transform="translate(-1.85)"/><path class="g" d="M256.76,249.5l14,0c.18-5.34-.42-11.32-4.1-13.87s-6.65-2.79-11.31-2.16l-14.82-5.1,14.55,7.65.08,4.11C257.88,246.28,256.46,247,256.76,249.5Z" transform="translate(-1.85)"/><path class="i" d="M255.76,244.65c-8.79,7.91-10.08,32-5,45.57,5.06,10.93,26.08,1.06,24.9-3.89l-4.4-39.58c-1.81-2-3.84.5-8.17.35C259.84,247,256.81,243.89,255.76,244.65Z" transform="translate(-1.85)"/><path class="g" d="M249.51,254.83c-2.33,3.07-3.42,12.7-2.21,26.37,3.64,4.3,7.77-1.57,7.78-5.51C254.75,265.93,252.2,261.65,249.51,254.83Z" transform="translate(-1.85)"/><path class="g" d="M271.64,247.31c-.12,9.46-2.3,16.63-6.48,25.45-2.17,7.66.83,10.36,4.16,12-.45-4.57.48-8.52,5.55-10.64l.69-24.06Z" transform="translate(-1.85)"/><path class="e" d="M261.92,236.2a1.39,1.39,0,1,1-2.78,0h0a1.39,1.39,0,1,1,2.78,0Z" transform="translate(-1.85)"/><path class="f" d="M239.13,297.71c-1.1.78-1.72,2-.65,2.94s3.8,1.59,4.91.82.57-3-.49-3.93A3.08,3.08,0,0,0,239.13,297.71Z" transform="translate(-1.85)"/><path class="f" d="M248.58,295c-1.1.78-2,4.78-1,5.73s6.26,1.27,7.36.49.08-4.62-1-5.56S249.69,294.27,248.58,295Z" transform="translate(-1.85)"/><path class="f" d="M262.1,297.36c-2,1.15-1.15,3.31.16,5.07,1.56,1.45,6.63,1.89,9,0a3.25,3.25,0,0,0-1-4.58C268.12,296.38,264.11,296.21,262.1,297.36Z" transform="translate(-1.85)"/><path class="f" d="M285.17,295.23c-1.1.78-1.23,4.78-.16,5.73s6.58,0,7.69-.82,1.72-4.13.65-5.07S286.27,294.46,285.17,295.23Z" transform="translate(-1.85)"/><path class="f" d="M300.55,292.78c-1.1.78-2,4.78-1,5.73s6.26,1.27,7.36.49.08-4.62-1-5.56S301.65,292,300.55,292.78Z" transform="translate(-1.85)"/><path class="f" d="M276.83,290c-2.09.78-3.52,10.18-2.45,11.12s4.78.29,5.89-.49C281.49,297.11,279.15,291.79,276.83,290Z" transform="translate(-1.85)"/><path class="g" d="M324.73,283.17c-2,5.91-2.68,12.87-6.94,17.12l-2.54-2.78Z" transform="translate(-1.85)"/><path class="g" d="M319.6,250l-14,0c-.18-5.34,1.55-13.65,6.18-15.49s6.37-1.66,12.24.39l14.12,1.15-15,1.41-.31,1.57C320.1,245.15,319.89,247.51,319.6,250Z" transform="translate(-1.85)"/><path class="g" d="M324.56,259.71c2.33,3.07,11.28,9.46,6.37,23.13-3.64,4.3-6.15,4.21-8.48,1.9Z" transform="translate(-1.85)"/><path class="i" d="M320.15,247.68c14.29,24.48,4.68,39.4-3.34,48.81l-17-6.66c-.18-10.18-2.49-26.09,2.94-40.24,2.87.16,4.67-4,6.3-3C313.35,249.15,317.79,248.07,320.15,247.68Z" transform="translate(-1.85)"/><path class="e" d="M315.92,236.19a1.39,1.39,0,1,0,2.78,0h0a1.39,1.39,0,1,0-2.78,0Z" transform="translate(-1.85)"/><path class="g" d="M294.25,249.14l-14,0c-.18-5.34.42-11.32,4.1-13.87s6.65-2.79,11.31-2.16l14.82-5.1-14.55,7.65-.08,4.11C293.13,245.91,294.54,246.65,294.25,249.14Z" transform="translate(-1.85)"/><path class="i" d="M295.25,244.28c8.79,7.91,10.08,32,5,45.57-5.06,10.93-26.08,1.06-24.9-3.89-2.2-13.19,2.93-26.38,4.4-39.58,1.81-2,3.84.5,8.17.35C291.17,246.64,294.2,243.53,295.25,244.28Z" transform="translate(-1.85)"/><path class="g" d="M301.49,254.46c2.33,3.07,3.42,12.7,2.21,26.37-3.64,4.3-7.77-1.57-7.78-5.51C296.26,265.57,298.81,261.29,301.49,254.46Z" transform="translate(-1.85)"/><path class="g" d="M279.37,246.95c.12,9.46,2.3,16.63,6.48,25.45,2.17,7.66-.83,10.36-4.16,12,.45-4.57-.48-8.52-5.55-10.64l-.69-24.06Z" transform="translate(-1.85)"/><path class="e" d="M289.08,235.84a1.39,1.39,0,1,0,2.78,0h0a1.39,1.39,0,1,0-2.78,0Z" transform="translate(-1.85)"/><path class="j" d="M361,194c0,67.76-39.11,122.69-87.35,122.69S186.3,261.76,186.3,194,225.41,71.31,273.66,71.31,361,126.24,361,194Z" transform="translate(-1.85)"/><path d="M1.85,382.52H4v14.64h7v1.78H1.85Z" transform="translate(-1.85)"/><path d="M21.86,391.25H15.47v5.92h7.12v1.78H13.35V382.52h8.87v1.78H15.47v5.19h6.38Z" transform="translate(-1.85)"/><path d="M37.85,398.22a15.28,15.28,0,0,1-5,.9A8.44,8.44,0,0,1,26.66,397a8.45,8.45,0,0,1-2.29-6.12c0-4.9,3.39-8.48,8.89-8.48a10.16,10.16,0,0,1,4.09.75l-.51,1.73a8.52,8.52,0,0,0-3.63-.71c-4,0-6.6,2.49-6.6,6.6s2.51,6.63,6.34,6.63a6.92,6.92,0,0,0,2.83-.44V392H32.44v-1.71h5.41Z" transform="translate(-1.85)"/><path d="M43.21,382.52v16.42H41.09V382.52Z" transform="translate(-1.85)"/><path d="M46.62,396.37a7.51,7.51,0,0,0,3.8,1.07c2.17,0,3.44-1.15,3.44-2.8s-.88-2.41-3.09-3.26c-2.68-1-4.34-2.34-4.34-4.65,0-2.56,2.12-4.46,5.31-4.46a7.45,7.45,0,0,1,3.63.8l-.58,1.73a6.55,6.55,0,0,0-3.12-.78c-2.24,0-3.09,1.34-3.09,2.46,0,1.54,1,2.29,3.27,3.17,2.78,1.07,4.19,2.41,4.19,4.83s-1.88,4.73-5.75,4.73a8.5,8.5,0,0,1-4.19-1Z" transform="translate(-1.85)"/><path d="M58.93,382.52H61v14.64h7v1.78H58.93Z" transform="translate(-1.85)"/><path d="M73.08,393.78l-1.71,5.17H69.19l5.58-16.42h2.56l5.6,16.42H80.66l-1.75-5.17Zm5.39-1.66-1.61-4.73c-.37-1.07-.61-2-.85-3h0c-.24,1-.51,2-.83,3l-1.61,4.75Z" transform="translate(-1.85)"/><path d="M86.59,384.33h-5v-1.8H93.75v1.8h-5v14.62H86.59Z" transform="translate(-1.85)"/><path d="M97.7,382.52v9.72c0,3.68,1.63,5.24,3.83,5.24,2.44,0,4-1.61,4-5.24v-9.72h2.14v9.58c0,5-2.66,7.12-6.21,7.12-3.36,0-5.9-1.92-5.9-7v-9.67Z" transform="translate(-1.85)"/><path d="M111.35,382.74a22.13,22.13,0,0,1,4.07-.34c2.27,0,3.73.41,4.75,1.34a4.09,4.09,0,0,1,1.29,3.12,4.31,4.31,0,0,1-3.09,4.19v.07c1.27.44,2,1.61,2.41,3.31a26.15,26.15,0,0,0,1.27,4.51h-2.19a21.3,21.3,0,0,1-1.1-3.92c-.49-2.27-1.36-3.12-3.29-3.19h-2v7.12h-2.12Zm2.12,7.48h2.17c2.27,0,3.7-1.24,3.7-3.12,0-2.12-1.54-3-3.78-3.07a8.72,8.72,0,0,0-2.1.19Z" transform="translate(-1.85)"/><path d="M127.23,393.78l-1.71,5.17h-2.19l5.58-16.42h2.56l5.6,16.42h-2.27l-1.75-5.17Zm5.39-1.66L131,387.4c-.37-1.07-.61-2-.85-3h0c-.24,1-.51,2-.83,3l-1.61,4.75Z" transform="translate(-1.85)"/><path d="M144.66,382.74a30.45,30.45,0,0,1,4.51-.34c3,0,5.21.71,6.65,2a7.57,7.57,0,0,1,2.31,5.9,8.69,8.69,0,0,1-2.36,6.38c-1.54,1.54-4.07,2.36-7.26,2.36a34.16,34.16,0,0,1-3.85-.2Zm2.12,14.52a13.36,13.36,0,0,0,2.14.12c4.53,0,7-2.53,7-7,0-3.87-2.17-6.33-6.65-6.33a12,12,0,0,0-2.49.22Z" transform="translate(-1.85)"/><path d="M169.39,391.25H163v5.92h7.12v1.78h-9.24V382.52h8.87v1.78H163v5.19h6.38Z" transform="translate(-1.85)"/><path d="M178,382.52h2.12v14.64h7v1.78H178Z" transform="translate(-1.85)"/><path d="M192.2,393.78l-1.71,5.17h-2.19l5.58-16.42h2.56l5.6,16.42h-2.27L198,393.78Zm5.39-1.66L196,387.4c-.37-1.07-.61-2-.85-3h0c-.24,1-.51,2-.83,3l-1.61,4.75Z" transform="translate(-1.85)"/><path d="M209.63,382.72a24.65,24.65,0,0,1,4.07-.32,6.75,6.75,0,0,1,4.61,1.36,4.42,4.42,0,0,1,1.44,3.44,4.83,4.83,0,0,1-1.27,3.51,6.8,6.8,0,0,1-5,1.8,7.34,7.34,0,0,1-1.71-.15v6.58h-2.12Zm2.12,7.92a7.1,7.1,0,0,0,1.75.17c2.56,0,4.12-1.24,4.12-3.51s-1.54-3.22-3.87-3.22a8.89,8.89,0,0,0-2,.17Z" transform="translate(-1.85)"/><path d="M222.59,382.74a22.13,22.13,0,0,1,4.07-.34c2.27,0,3.73.41,4.75,1.34a4.09,4.09,0,0,1,1.29,3.12,4.31,4.31,0,0,1-3.09,4.19v.07c1.27.44,2,1.61,2.41,3.31a26.15,26.15,0,0,0,1.27,4.51H231.1A21.3,21.3,0,0,1,230,395c-.49-2.27-1.36-3.12-3.29-3.19h-2v7.12h-2.12Zm2.12,7.48h2.17c2.27,0,3.7-1.24,3.7-3.12,0-2.12-1.54-3-3.78-3.07a8.72,8.72,0,0,0-2.1.19Z" transform="translate(-1.85)"/><path d="M249.81,390.57c0,5.65-3.44,8.65-7.63,8.65s-7.38-3.36-7.38-8.33c0-5.21,3.24-8.63,7.63-8.63S249.81,385.69,249.81,390.57Zm-12.74.27c0,3.51,1.9,6.65,5.24,6.65s5.26-3.09,5.26-6.82c0-3.27-1.71-6.68-5.24-6.68S237.07,387.23,237.07,390.83Z" transform="translate(-1.85)"/><path d="M256.17,398.95l-5.36-16.42h2.29l2.56,8.09c.71,2.22,1.32,4.22,1.75,6.14h0c.46-1.9,1.15-4,1.88-6.12l2.78-8.11h2.27l-5.87,16.42Z" transform="translate(-1.85)"/><path d="M268.29,382.52v16.42h-2.12V382.52Z" transform="translate(-1.85)"/><path d="M272,398.95V382.52h2.31l5.26,8.31a46.39,46.39,0,0,1,2.95,5.34l0,0c-.2-2.19-.24-4.19-.24-6.75v-6.87h2v16.42h-2.14L277,390.61a52,52,0,0,1-3.07-5.48l-.07,0c.12,2.07.17,4,.17,6.77v7Z" transform="translate(-1.85)"/><path d="M299.5,398.41a10.52,10.52,0,0,1-4.34.78c-4.63,0-8.12-2.92-8.12-8.31,0-5.14,3.49-8.63,8.58-8.63a8.79,8.79,0,0,1,3.9.73l-.51,1.73a7.72,7.72,0,0,0-3.31-.68c-3.85,0-6.41,2.46-6.41,6.77,0,4,2.32,6.6,6.31,6.6a8.49,8.49,0,0,0,3.46-.68Z" transform="translate(-1.85)"/><path d="M304.28,382.52v16.42h-2.12V382.52Z" transform="translate(-1.85)"/><path d="M310.64,393.78l-1.71,5.17h-2.19l5.58-16.42h2.56l5.6,16.42h-2.27l-1.75-5.17Zm5.39-1.66-1.61-4.73c-.37-1.07-.61-2-.85-3h0c-.24,1-.51,2-.83,3l-1.61,4.75Z" transform="translate(-1.85)"/><path d="M328.07,382.74a30.46,30.46,0,0,1,4.51-.34c3,0,5.21.71,6.65,2a7.57,7.57,0,0,1,2.32,5.9,8.69,8.69,0,0,1-2.36,6.38c-1.54,1.54-4.07,2.36-7.26,2.36a34.16,34.16,0,0,1-3.85-.2Zm2.12,14.52a13.37,13.37,0,0,0,2.14.12c4.53,0,7-2.53,7-7,0-3.87-2.17-6.33-6.65-6.33a12,12,0,0,0-2.49.22Z" transform="translate(-1.85)"/><path d="M352.8,391.25h-6.38v5.92h7.12v1.78H344.3V382.52h8.87v1.78h-6.75v5.19h6.38Z" transform="translate(-1.85)"/><path d="M363.57,384.33h-5v-1.8h12.16v1.8h-5v14.62h-2.14Z" transform="translate(-1.85)"/><path d="M374.69,382.52v16.42h-2.12V382.52Z" transform="translate(-1.85)"/><path d="M386.89,391.25h-6.38v5.92h7.12v1.78h-9.24V382.52h8.87v1.78h-6.75v5.19h6.38Z" transform="translate(-1.85)"/><path d="M390.38,382.74a22.14,22.14,0,0,1,4.07-.34c2.27,0,3.73.41,4.75,1.34a4.09,4.09,0,0,1,1.29,3.12,4.31,4.31,0,0,1-3.09,4.19v.07c1.27.44,2,1.61,2.41,3.31a26.18,26.18,0,0,0,1.27,4.51h-2.19a21.3,21.3,0,0,1-1.1-3.92c-.49-2.27-1.36-3.12-3.29-3.19h-2v7.12h-2.12Zm2.12,7.48h2.17c2.27,0,3.7-1.24,3.7-3.12,0-2.12-1.54-3-3.78-3.07a8.73,8.73,0,0,0-2.1.19Z" transform="translate(-1.85)"/><path d="M403.49,382.74a22.14,22.14,0,0,1,4.07-.34c2.27,0,3.73.41,4.75,1.34a4.09,4.09,0,0,1,1.29,3.12,4.31,4.31,0,0,1-3.09,4.19v.07c1.27.44,2,1.61,2.41,3.31a26.18,26.18,0,0,0,1.27,4.51H412a21.3,21.3,0,0,1-1.1-3.92c-.49-2.27-1.36-3.12-3.29-3.19h-2v7.12h-2.12Zm2.12,7.48h2.17c2.27,0,3.7-1.24,3.7-3.12,0-2.12-1.54-3-3.78-3.07a8.73,8.73,0,0,0-2.1.19Z" transform="translate(-1.85)"/><path d="M419.38,393.78l-1.71,5.17h-2.19l5.58-16.42h2.56l5.6,16.42H427l-1.75-5.17Zm5.39-1.66-1.61-4.73c-.37-1.07-.61-2-.85-3h0c-.24,1-.51,2-.83,3l-1.61,4.75Z" transform="translate(-1.85)"/><path d="M436.8,382.74a30.46,30.46,0,0,1,4.51-.34c3,0,5.21.71,6.65,2a7.57,7.57,0,0,1,2.32,5.9,8.69,8.69,0,0,1-2.36,6.38c-1.54,1.54-4.07,2.36-7.26,2.36a34.16,34.16,0,0,1-3.85-.2Zm2.12,14.52a13.37,13.37,0,0,0,2.14.12c4.53,0,7-2.53,7-7,0-3.87-2.17-6.33-6.65-6.33a12,12,0,0,0-2.49.22Z" transform="translate(-1.85)"/><path d="M461.54,391.25h-6.38v5.92h7.12v1.78H453V382.52h8.87v1.78h-6.75v5.19h6.38Z" transform="translate(-1.85)"/><path d="M465,382.52h2.12v14.64h7v1.78H465Z" transform="translate(-1.85)"/><path d="M481.69,382.52h8.85v1.78h-6.73v5.46H490v1.75h-6.21v7.43h-2.12Z" transform="translate(-1.85)"/><path d="M495.68,382.52v9.72c0,3.68,1.63,5.24,3.83,5.24,2.44,0,4-1.61,4-5.24v-9.72h2.14v9.58c0,5-2.66,7.12-6.21,7.12-3.36,0-5.9-1.92-5.9-7v-9.67Z" transform="translate(-1.85)"/><path d="M517.83,391.25h-6.38v5.92h7.12v1.78h-9.24V382.52h8.87v1.78h-6.75v5.19h6.38Z" transform="translate(-1.85)"/><path d="M533.82,398.22a15.28,15.28,0,0,1-5,.9,7.71,7.71,0,0,1-8.43-8.29c0-4.9,3.39-8.48,8.89-8.48a10.16,10.16,0,0,1,4.09.75l-.51,1.73a8.51,8.51,0,0,0-3.63-.71c-4,0-6.6,2.49-6.6,6.6s2.51,6.63,6.34,6.63a6.92,6.92,0,0,0,2.83-.44V392h-3.34v-1.71h5.41Z" transform="translate(-1.85)"/><path d="M551.1,390.57c0,5.65-3.44,8.65-7.63,8.65s-7.38-3.36-7.38-8.33c0-5.21,3.24-8.63,7.63-8.63S551.1,385.69,551.1,390.57Zm-12.74.27c0,3.51,1.9,6.65,5.24,6.65s5.26-3.09,5.26-6.82c0-3.27-1.71-6.68-5.24-6.68S538.35,387.23,538.35,390.83Z" transform="translate(-1.85)"/></svg>