<svg xmlns="http://www.w3.org/2000/svg" width="501" height="263" viewBox="0 0 1806 709">
  <g fill="none" transform="translate(3 3)">
    <path fill="#7C7D81" d="M431.96521,653.832917 C431.683784,653.099055 431.578753,630.639475 431.731823,603.923118 L432.010097,555.34789 L456.486553,555.060397 C484.015163,554.737599 488.3353,555.428589 497.270026,561.583446 C510.801246,570.90551 517.827377,591.671785 514.897086,613.681717 C511.935198,635.928955 501.946119,649.007459 484.319462,653.716155 C476.978075,655.677281 432.710222,655.776012 431.965198,653.829638 L431.96521,653.832917 Z M481.650625,644.851304 C491.457395,640.484952 497.097765,630.03095 498.634843,613.37241 C499.635345,602.528781 498.549104,588.300182 496.229529,581.874855 C493.647554,574.721971 489.10539,568.772141 483.896023,565.719174 C479.239549,562.990141 478.381828,562.869092 463.529013,562.845512 L448.023179,562.820294 L447.743392,603.919462 C447.58944,626.524048 447.718175,645.682888 448.029988,646.494802 C448.963285,648.927012 475.398694,647.634684 481.650676,644.850674 L481.650625,644.851304 Z M527.212524,654.469183 C526.813584,654.070728 526.48727,631.484678 526.48727,604.278953 L526.48727,554.814011 L562.669343,554.814011 C595.227015,554.814011 598.918759,554.989281 599.523612,556.565823 C599.893299,557.529174 599.912338,559.210752 599.566481,560.30234 C598.974628,562.167257 597.312043,562.288181 572.053166,562.303564 C557.267303,562.312012 544.556658,562.709584 543.807296,563.184955 C542.774642,563.840639 542.516214,568.16475 542.739716,581.05071 L543.034634,598.051719 L569.18931,598.585093 L595.343999,599.118466 L595.343999,602.854984 L595.343999,606.591627 L569.18931,607.125001 L543.034634,607.658375 L543.034634,626.874965 L543.034634,646.091556 L571.236789,646.376527 C590.496464,646.57071 599.906954,647.049864 600.914946,647.886618 C601.726695,648.559955 602.246539,650.353756 602.07003,651.871917 L601.749138,654.632347 L564.843729,654.912274 C544.545751,655.066107 527.61193,654.861837 527.213015,654.467165 L527.212524,654.469183 Z M611.890253,604.990749 L611.890253,554.814011 L619.248801,554.814011 C624.974053,554.814011 626.751176,555.188508 627.255335,556.502776 C627.611784,557.432083 627.903297,578.089413 627.903297,602.408992 L627.903297,646.626695 L650.234279,646.626695 C662.516316,646.626695 673.325138,646.91797 674.253883,647.274814 C675.334576,647.68966 675.942506,649.226861 675.942506,651.545083 L675.942506,655.167486 L643.916367,655.167486 L611.890228,655.167486 L611.890253,604.990749 Z M728.776544,652.765286 C728.455526,651.444083 728.326287,628.984755 728.489318,602.855488 L728.785622,555.34789 L765.081917,555.34789 L801.3782,555.34789 L801.3782,558.550655 L801.3782,561.75342 L773.622217,562.286794 L745.866234,562.820168 L745.573586,580.702315 L745.280937,598.584462 L770.796957,598.584462 C798.56,598.584462 799.684559,598.824039 798.274564,604.442244 L797.601259,607.125127 L771.466921,607.125127 L745.332583,607.125127 L745.332583,626.87547 L745.332583,646.625939 L773.00125,646.625939 C788.219025,646.625939 801.429807,646.917214 802.35854,647.274057 C803.439233,647.688904 804.047162,649.226105 804.047162,651.544327 L804.047162,655.16673 L766.703676,655.16673 L729.360176,655.16673 L728.776544,652.765286 Z M809.405589,653.877428 C809.417051,653.118347 817.093943,641.928844 826.465371,629.011109 C835.836787,616.093248 843.513692,604.874239 843.525154,604.079978 C843.536564,603.285592 836.335449,592.623662 827.522587,580.386578 C818.709725,568.149367 811.204084,557.368154 810.843399,556.428129 C810.270711,554.935691 811.242969,554.758909 818.516484,555.033287 L826.845386,555.347259 L838.417564,571.350619 C844.782268,580.152549 850.861459,588.225787 851.926883,589.291273 C853.798042,591.162621 854.31215,590.608442 867.020651,573.020974 L880.177279,554.813381 L888.016244,554.813381 C892.981052,554.813381 895.855335,555.242098 895.855335,555.982264 C895.855335,556.625339 888.654371,567.141883 879.853235,579.353371 C871.052074,591.564858 863.572205,602.283025 863.231316,603.171477 C862.839815,604.191571 869.107633,613.745142 880.244357,629.103031 C889.942352,642.476971 897.634047,653.812616 897.336985,654.293409 C897.03942,654.773824 893.263866,655.167234 888.945759,655.167234 L881.094689,655.167234 L867.924898,636.511758 C860.51439,626.014506 854.113525,617.961065 853.287969,618.095858 C852.481011,618.228256 845.970904,626.502486 838.821018,636.484396 L825.821217,654.633482 L817.602995,654.944932 C811.428519,655.179465 809.389942,654.919713 809.405589,653.876923 L809.405589,653.877428 Z M933.219122,610.054774 C933.219122,576.318183 932.893817,564.523938 931.938076,563.5679 C931.065553,562.695335 925.959906,562.286794 915.925007,562.286794 L901.192983,562.286794 L901.192983,558.537289 L901.192983,554.787658 L940.958856,555.067585 L980.724603,555.347511 L980.724603,558.550276 L980.724603,561.753042 L967.380421,562.014054 C960.041013,562.1578 952.960463,562.525992 951.645626,562.832399 L949.255139,563.38973 L948.976487,609.011606 L948.697834,654.633608 L940.958226,654.94758 L933.218491,655.261552 L933.219122,610.054774 Z M989.219978,653.832539 C988.938804,653.098677 988.83289,630.639097 988.986717,603.92274 L989.265369,555.347511 L1017.02144,555.017147 C1035.20687,554.800267 1046.74725,555.118022 1050.49052,555.918713 C1066.13302,559.291074 1074.6439,578.965634 1067.05144,594.202474 C1063.84227,600.642932 1058.42216,605.077123 1050.57172,607.684728 C1047.6784,608.645558 1045.31111,609.641189 1045.31111,609.89678 C1045.31111,610.152749 1048.1284,613.836937 1051.57159,618.084762 C1060.63524,629.266447 1072.94374,651.70787 1071.39085,654.220527 C1070.46285,655.722927 1055.33769,655.381845 1054.2024,653.83216 C1053.66401,653.098298 1052.34539,649.85531 1051.271,646.625939 C1046.99639,633.777555 1037.28125,619.431815 1029.52248,614.511031 C1025.06492,611.684024 1023.74983,611.395523 1015.32532,611.395523 C1007.84368,611.395523 1005.9148,611.723365 1005.39267,613.084162 C1005.03585,614.013468 1004.74459,623.861466 1004.74459,634.969765 L1004.74459,655.166604 L997.238365,655.166604 C992.217826,655.166604 989.562557,654.724017 989.220356,653.83216 L989.219978,653.832539 Z M1041.6184,600.848464 C1055.91189,594.355425 1057.76625,574.548719 1044.96942,565.053907 C1042.25161,563.0373 1040.24153,562.78751 1024.26111,562.479716 C1010.47815,562.214921 1006.36531,562.454498 1005.66994,563.547725 C1004.65116,565.153647 1004.40478,598.593667 1005.39255,601.166849 C1006.41511,603.832962 1035.61388,603.576615 1041.61878,600.849094 L1041.6184,600.848464 Z M1082.10108,653.846409 C1081.81738,653.104981 1081.70895,630.639097 1081.86277,603.92274 L1082.14142,555.347511 L1118.43776,555.347511 L1154.73409,555.347511 L1154.73409,558.550276 L1154.73409,561.753042 L1127.59862,562.038012 C1109.45997,562.228413 1099.98326,562.721437 1099.01567,563.525028 C1097.88593,564.4619 1097.63249,568.387809 1097.86071,581.388387 L1098.15449,598.050332 L1124.30926,598.583706 L1150.4639,599.117079 L1150.4639,602.853597 L1150.4639,606.59024 L1124.59169,606.876471 C1098.81847,607.161442 1098.71722,607.171529 1098.1318,609.545484 C1097.80902,610.856222 1097.68167,619.61528 1097.84936,629.0101 L1098.15449,646.09143 L1127.51187,646.668937 C1143.65834,646.986691 1157.01967,647.346057 1157.20363,647.469628 C1157.38772,647.595721 1157.38772,649.254728 1157.20363,651.163021 L1156.8695,654.632725 L1119.7444,654.913913 C1090.61801,655.134576 1082.50783,654.90433 1082.10221,653.845904 L1082.10108,653.846409 Z M1167.7217,654.455439 C1167.32957,654.06455 1167.01057,631.484551 1167.01057,604.278827 L1167.01057,554.813885 L1176.58083,554.813885 C1184.63339,554.813885 1186.31098,555.112726 1187.15942,556.697969 C1187.7142,557.734454 1194.28183,576.728743 1201.75464,598.908017 C1209.22757,621.087292 1215.81399,639.076618 1216.39122,638.8842 C1216.9687,638.691277 1223.76555,620.297696 1231.49595,598.008595 C1239.22636,575.719493 1245.92259,556.882317 1246.37663,556.148455 C1246.92511,555.26202 1250.05132,554.813885 1255.68981,554.813885 L1264.17762,554.813885 L1263.90023,604.723684 L1263.62284,654.633482 L1256.7811,654.955019 C1252.02988,655.179465 1249.66991,654.854145 1249.05788,653.887011 C1248.57244,653.122886 1248.16896,635.963001 1248.16014,615.754435 C1248.14955,595.54587 1247.78314,579.359675 1247.34309,579.78524 C1246.90305,580.210173 1241.01793,597.225304 1234.26571,617.595647 L1221.98898,654.632473 L1215.81891,654.954011 C1208.29365,655.34616 1210.31709,659.477223 1195.79387,614.064535 C1189.78493,595.275022 1184.45346,579.445293 1183.94622,578.887583 C1183.42674,578.316381 1183.02452,594.001608 1183.02452,614.831308 C1183.02452,635.158274 1182.73326,652.549289 1182.37643,653.477965 C1181.88091,654.767645 1180.1578,655.16673 1175.08166,655.16673 C1171.42589,655.16673 1168.11446,654.846453 1167.72309,654.454304 L1167.7217,654.455439 Z M1305.78991,653.22477 C1286.38623,646.793769 1275.3647,630.575168 1274.1003,606.592005 C1272.55561,577.292127 1287.73423,555.519755 1312.57504,551.403319 C1331.1386,548.327025 1350.3476,557.598526 1358.93073,573.777533 C1364.05643,583.439166 1365.83136,591.11811 1365.75281,603.292149 C1365.60276,626.56175 1356.81184,642.41279 1339.26631,651.050924 C1332.91479,654.177781 1330.96662,654.60612 1321.88721,654.871672 C1314.21607,655.096118 1310.19439,654.685054 1305.78991,653.22477 L1305.78991,653.22477 Z M1331.13179,644.294603 C1353.26652,633.937819 1357.69369,586.507137 1338.33288,567.14554 C1333.30112,562.113416 1329.10431,560.090126 1322.2255,559.380095 C1301.12545,557.202215 1286.47437,580.759939 1289.89776,611.360469 C1291.62263,626.779387 1297.30992,637.663745 1306.43598,643.012236 C1314.99213,648.026707 1322.33999,648.408265 1331.13179,644.294603 L1331.13179,644.294603 Z M1081.61551,490.856305 C1078.72875,490.070745 1076.11648,485.993272 1077.0093,483.66635 C1077.3636,482.744609 1079.30787,482.217918 1082.36044,482.217918 C1088.42952,482.217918 1092.05755,478.675206 1094.75619,470.113484 L1096.64372,464.125322 L1083.67805,432.057573 C1076.54694,414.420172 1070.98675,399.274498 1071.32214,398.400294 C1071.99796,396.639908 1081.04938,396.15155 1083.55511,397.740827 C1084.33307,398.233851 1088.74827,408.795915 1093.36696,421.211547 C1097.98554,433.627306 1102.09938,444.327568 1102.50879,444.990061 C1103.58557,446.732037 1103.97985,445.82858 1113.06077,420.832638 C1117.524,408.547259 1121.76053,398.123898 1122.47519,397.669837 C1124.26071,396.534999 1130.90891,396.629569 1132.78421,397.816105 C1134.05277,398.619318 1132.02768,405.00316 1121.191,434.364699 C1105.09269,477.983459 1102.08753,484.582416 1096.77119,487.987435 C1092.46847,490.743326 1085.8233,492.001231 1081.61551,490.856431 L1081.61551,490.856305 Z M25.2781829,463.545545 C19.4177651,461.490606 11.561728,452.796233 9.13762668,445.682438 C6.67957008,438.469155 6.62114129,425.021451 9.01280039,417.066362 C13.9704089,400.579814 31.5252974,392.535956 45.5005588,400.347172 C48.3238268,401.925227 50.7999013,403.216421 51.0029521,403.216421 C51.2059524,403.216421 51.5057877,396.610655 51.6691966,388.537039 L51.966258,373.857657 L57.7366747,373.529814 C61.6302589,373.307891 63.795062,373.655908 64.3924377,374.597823 C65.3993698,376.185588 65.6567515,460.857745 64.6625164,463.448832 C63.7678019,465.780294 53.7248839,465.855571 53.0003114,463.537097 C51.2885899,458.057847 51.5417982,458.303098 49.5029814,460.148345 C44.1981036,464.949466 33.5408007,466.444804 25.2778299,463.547563 L25.2781829,463.545545 Z M43.9600889,455.727268 C45.4279578,454.675651 47.822063,451.438715 49.2803367,448.533404 C51.5832808,443.945253 51.9280536,441.84782 51.9036683,432.575059 C51.8696248,419.826288 50.3381701,413.928661 45.7634001,408.936383 C38.7625744,401.296905 29.0888647,403.291698 24.1464624,413.394027 C18.9682896,423.978409 19.8068953,443.89179 25.7843346,452.286691 C30.2380231,458.54154 37.9834566,460.007751 43.9600889,455.727268 L43.9600889,455.727268 Z M92.7653525,463.602161 C76.7769583,457.897835 69.205979,439.820495 74.4204775,419.799683 C78.0901182,405.71029 88.4696133,397.593298 102.979396,397.465818 C120.265694,397.313246 131.901357,408.505775 132.821453,426.169529 L133.099475,431.507429 L111.296988,431.797443 C99.1351624,431.958842 88.9385819,432.548958 88.2372599,433.130499 C86.8950495,434.245162 87.6828547,441.909732 89.6675296,447.048027 C91.2676514,451.190564 95.8484358,456.162794 99.4326398,457.647414 C106.180396,460.44252 112.634659,456.759718 117.837419,447.145623 C119.536481,444.005904 120.040805,443.785115 125.514059,443.785115 C128.736015,443.785115 131.6772,444.278139 132.050014,444.882125 C133.19022,446.72712 128.330909,455.344197 124.256226,458.703065 C122.14003,460.447564 118.254452,462.6088 115.621614,463.505952 C109.766189,465.50125 98.2233757,465.550048 92.7653273,463.606827 L92.7653525,463.602161 Z M118.886439,420.92229 C118.114659,411.295711 111.465327,404.295526 103.085524,404.28796 C95.7190703,404.281529 89.7914103,411.031798 88.1500707,421.296786 L87.4468826,425.69441 L103.334205,425.398091 L119.221515,425.101772 L118.886439,420.92229 Z M205.535125,462.996662 C189.085844,457.631148 179.578733,441.200963 179.550074,418.089482 C179.518552,393.076013 191.530208,377.310716 213.655806,373.323778 C230.306309,370.323393 246.011222,377.276545 252.787032,390.648594 C256.235365,397.453839 255.650875,398.946025 249.536732,398.946025 C244.235902,398.946025 243.573339,398.426522 240.013735,391.472865 C236.38564,384.385927 230.22313,380.459009 221.950072,379.962329 C213.035596,379.426433 207.212614,382.452037 201.715125,390.473955 C196.783226,397.670467 194.482929,406.362066 194.482929,417.800603 C194.482929,429.138013 196.043649,436.383323 200.17313,444.216227 C205.532225,454.381602 213.942503,458.892079 224.280717,457.145311 C232.616113,455.736977 238.523107,450.242722 242.655299,440.054272 C244.339041,435.902908 244.554285,435.768241 250.013619,435.449856 C253.106739,435.269543 256.110728,435.594863 256.689165,436.17363 C258.277019,437.761521 252.056937,450.192158 247.28822,454.961126 C240.794933,461.454669 233.036639,464.444211 221.705148,464.819212 C214.326186,465.063833 210.57498,464.64016 205.535125,462.996662 L205.535125,462.996662 Z M289.779757,463.110146 C272.627415,456.74547 262.805363,440.572893 262.805363,418.695233 C262.805363,403.349575 266.816574,392.659023 276.032588,383.442625 C283.594615,375.88019 291.240414,372.939699 303.371802,372.927972 C315.208411,372.91675 323.266515,376.319751 331.155549,384.661693 C352.304817,407.024937 345.914795,449.602673 319.594643,461.693994 C311.32678,465.492171 297.91562,466.129193 289.779757,463.110146 Z M312.455033,455.671156 C324.181177,450.343848 331.222224,433.335274 329.720375,413.964472 C328.640438,400.03547 323.40709,389.028297 315.471731,383.995543 C300.207279,374.314744 283.658074,383.070019 278.134511,403.749038 C276.206701,410.96623 276.311656,426.961646 278.33789,434.741086 C283.041243,452.799386 298.245476,462.126746 312.455071,455.671156 L312.455033,455.671156 Z M352.077911,463.495991 C351.711123,462.540205 351.411036,442.916964 351.411036,419.889083 C351.411036,388.74774 351.73924,377.691896 352.692081,376.73901 C354.447492,374.983542 364.775316,375.096647 366.569625,376.891583 C367.357796,377.679665 376.824458,393.053064 387.606562,411.054495 C398.388678,429.0558 407.619393,443.784106 408.119241,443.784106 C408.61905,443.784106 409.154921,428.530874 409.310008,409.888134 L409.591939,375.992287 L413.76033,375.650575 C416.052935,375.462696 419.060706,375.587528 420.444261,375.940589 L422.9598,376.572315 L422.681148,420.587008 L422.402495,464.601701 L415.365634,464.913151 L408.32876,465.224601 L387.686741,431.526847 C376.333626,412.993177 366.656915,398.217081 366.182953,398.691065 C365.708992,399.165175 365.193926,414.188665 365.038334,432.076865 L364.755521,464.600945 L358.750304,464.917438 C353.992216,465.168364 352.606607,464.867001 352.078201,463.495613 L352.077911,463.495991 Z M457.930113,464.919456 C457.800999,464.744187 457.440768,446.345814 457.129459,424.033259 L456.563454,383.464817 L443.219221,382.931443 C430.702536,382.430854 429.855255,382.259367 429.556593,380.168995 C428.904848,375.60682 430.483081,375.412511 465.765471,375.709838 L499.264964,375.992287 L499.597078,379.429459 L499.929191,382.866757 L486.25287,383.165598 L472.576536,383.464439 L472.042809,424.032881 L471.509082,464.601197 L464.836965,464.918952 C461.167312,465.094221 458.059251,465.094221 457.930176,464.918952 L457.930113,464.919456 Z M503.00138,463.304203 C503.00138,460.883468 532.493256,381.13386 534.599164,377.859978 C535.912387,375.818404 537.082311,375.457904 542.394187,375.457904 C546.09395,375.457904 549.094282,376.002627 549.747452,376.792474 C551.207364,378.558156 584.13427,461.814035 584.13427,463.739729 C584.13427,464.901046 582.54885,465.162942 576.987272,464.917438 L569.840273,464.602206 L564.343289,450.189763 L558.846305,435.77732 L542.784982,435.483523 L526.723646,435.189726 L523.741659,443.490688 C522.101568,448.056141 519.698675,454.674138 518.401893,458.19718 L516.044101,464.60271 L509.522735,464.920465 C503.823355,465.19787 503.00138,464.996121 503.00138,463.305212 L503.00138,463.304203 Z M555.310745,427.085217 C555.310745,424.785909 542.866018,390.479125 542.119166,390.719584 C540.923607,391.104168 529.645224,425.766283 530.346344,426.900743 C530.975015,427.918314 555.310745,428.097366 555.310745,427.084839 L555.310745,427.085217 Z M592.404365,464.509275 C591.965834,464.070471 591.60699,444.394019 591.60699,420.783209 C591.60699,384.202588 591.840377,377.660877 593.185487,376.544449 C594.351037,375.577314 600.293159,375.333955 615.900291,375.612621 C636.095092,375.974508 637.27262,376.11321 642.334906,378.718672 C649.490579,382.402104 653.727284,388.534391 654.356182,396.118513 C654.975144,403.582847 653.193406,408.812433 648.396874,413.609141 C644.840283,417.165976 644.69759,417.544255 646.51085,418.609742 C654.941416,423.563688 658.866786,430.114226 658.851454,439.203396 C658.838959,446.594848 655.309804,455.034512 650.722211,458.643676 C643.852176,464.048657 641.602831,464.461864 616.69082,464.896507 C603.771791,465.122214 592.842871,464.946944 592.404327,464.509401 L592.404365,464.509275 Z M632.09596,457.579071 C635.864441,456.770815 638.254587,455.485547 640.126956,453.260256 C647.710922,444.246742 645.365776,427.91554 635.920764,423.968952 C633.410784,422.919857 628.161246,422.431877 619.397306,422.431877 L606.552567,422.431877 L606.552567,439.869041 C606.552567,449.459557 606.872829,457.626608 607.264203,458.018128 C608.401131,459.155488 626.216087,458.840255 632.09591,457.579324 L632.09596,457.579071 Z M631.072511,413.538277 C637.561624,411.839929 640.713828,407.180284 640.713828,399.286477 C640.713828,385.890722 636.663253,382.931065 618.329814,382.931065 L606.552618,382.931065 L606.552618,398.233095 C606.552618,406.649306 606.872879,413.855527 607.264254,414.24692 C608.426399,415.409499 625.912835,414.888734 631.07246,413.538277 L631.072511,413.538277 Z M669.18151,464.423658 C668.79001,464.032769 668.469748,444.431216 668.469748,420.866052 C668.469748,388.964873 668.796945,377.692905 669.750794,376.73901 C670.455369,376.03415 673.241643,375.457904 675.942518,375.457904 C678.643381,375.457904 681.429655,376.03415 682.13423,376.73901 C683.087071,377.692274 683.415276,388.74774 683.415276,419.889083 C683.415276,442.916964 683.123636,462.517886 682.767314,463.446688 C682.280869,464.714429 680.59579,465.135327 676.006243,465.135327 C672.644053,465.135327 669.572898,464.815051 669.181473,464.424162 L669.18151,464.423658 Z M695.653119,463.81715 C695.367406,463.07194 695.259223,443.006994 695.412797,419.22722 L695.69208,375.991404 L702.097308,375.991404 L708.502536,375.991404 L709.036262,416.55972 L709.569989,457.128036 L730.38698,457.66141 L751.20397,458.194784 L751.20397,461.397549 L751.20397,464.600314 L723.688297,464.885285 C702.23908,465.107209 696.058098,464.872675 695.653094,463.816015 L695.653119,463.81715 Z M759.465667,420.61437 L759.74432,375.991404 L766.149548,375.991404 L772.554776,375.991404 L772.554776,420.296238 L772.554776,464.601197 L765.87092,464.918952 L759.187053,465.236706 L759.465667,420.61437 Z M785.513888,463.536088 C785.138527,462.557606 784.831504,442.879262 784.831504,419.805861 C784.831504,384.11281 785.066657,377.658986 786.407871,376.545836 C787.576573,375.57618 793.581449,375.34669 809.626822,375.660662 C829.483406,376.047768 831.733671,376.289867 836.89544,378.580348 C844.21833,381.830524 852.243324,390.567516 855.358761,398.681734 C858.325428,406.408342 859.431591,425.08765 857.447547,433.953761 C854.430344,447.436772 847.070699,457.473658 836.835284,462.064203 C831.679832,464.376499 829.607564,464.588335 808.732902,464.937866 C788.473784,465.277056 786.127441,465.135832 785.513951,463.536593 L785.513888,463.536088 Z M829.178427,455.655143 C838.131271,451.588261 843.20261,441.341557 844.264604,425.173519 C845.710446,403.161444 839.00595,387.463356 826.699162,384.045224 C824.515597,383.438716 817.577349,382.939387 811.280846,382.936865 L799.832649,382.930939 L799.537983,418.962046 C799.375835,438.779092 799.414418,455.593609 799.623722,456.327597 C800.277358,458.616566 823.839077,458.080544 829.177847,455.655521 L829.178427,455.655143 Z M864.348486,464.043865 C863.673541,462.951899 894.140171,379.308031 896.129322,376.792096 C897.271672,375.347573 908.349312,374.946723 910.426472,376.275114 C911.956035,377.253596 944.962123,460.275447 944.962123,463.145074 C944.962123,465.032814 944.312775,465.206318 938.325904,464.919582 C930.600165,464.550129 931.365388,465.505915 924.413699,447.520245 L919.874939,435.776815 L903.863887,435.776815 L887.852709,435.776815 L882.980071,449.166769 C880.300088,456.531238 877.748828,463.136878 877.310561,463.846025 C876.335655,465.423576 865.305097,465.592289 864.348486,464.043991 L864.348486,464.043865 Z M916.138598,426.266368 C916.138598,423.900105 904.22437,390.403847 903.382612,390.403847 C902.508828,390.403847 891.585141,423.372657 891.585141,426.00813 C891.585141,427.542683 893.165644,427.769398 903.86187,427.769398 C913.705621,427.769398 916.138598,427.471818 916.138598,426.266368 L916.138598,426.266368 Z M953.757459,420.655099 L954.036112,375.991404 L975.920682,375.994557 C999.692273,375.997709 1002.77964,376.532974 1010.85212,382.047909 C1026.85233,392.978795 1031.90679,423.872995 1021.25166,445.611826 C1018.73711,450.741798 1015.94491,454.567716 1012.88616,457.074321 C1004.78355,463.714132 1001.49772,464.413696 976.175757,464.891085 L953.478807,465.318541 L953.757459,420.65472 L953.757459,420.655099 Z M999.682817,454.633032 C1008.53149,449.131211 1012.70069,436.260761 1012.00456,416.594648 C1011.48382,401.887525 1009.48975,395.860527 1002.90863,389.105214 C998.052888,384.121006 991.950017,382.651643 978.055716,383.121465 L967.914148,383.464439 L967.632973,420.668212 L967.351799,457.871986 L981.510631,457.500011 C994.122877,457.168386 996.107867,456.855675 999.682186,454.633032 L999.682817,454.633032 Z M1176.19539,464.247632 C1175.43256,463.01318 1207.3432,377.334422 1208.94501,376.316472 C1211.08673,374.955549 1222.15592,375.322859 1223.29411,376.791843 C1225.3076,379.391253 1257.80114,463.121746 1257.18407,464.120278 C1256.83859,464.677609 1253.67607,465.134066 1250.15496,465.134066 L1243.75263,465.134066 L1241.81997,460.596858 C1240.75706,458.101349 1238.09964,451.363311 1235.91506,445.623301 L1231.94281,435.186952 L1215.87653,435.480749 L1199.81012,435.774546 L1195.10354,449.069678 C1192.51485,456.381943 1189.87988,462.987709 1189.24805,463.748934 C1187.97584,465.281848 1177.09174,465.69619 1176.19539,464.24574 L1176.19539,464.247632 Z M1228.21882,426.968707 C1228.96652,425.734255 1216.61527,390.914272 1215.49928,391.111608 C1214.58514,391.273007 1203.53827,423.467605 1203.37814,426.434955 C1203.3277,427.428568 1206.42226,427.769398 1215.51995,427.769398 C1222.23737,427.769398 1227.95202,427.408772 1228.21882,426.968707 L1228.21882,426.968707 Z M1287.10796,463.708205 C1276.63276,460.231818 1270.94144,454.886605 1267.6338,445.418399 C1266.00172,440.746775 1265.75724,435.802538 1265.75724,407.485177 L1265.75724,374.923774 L1272.42927,374.606019 L1279.10142,374.288265 L1279.11403,399.160636 C1279.15186,446.715897 1282.13659,456.142366 1297.57672,457.422842 C1308.71841,458.347105 1316.97738,452.026183 1319.58347,440.580585 C1320.18491,437.938303 1320.68926,422.724413 1320.70312,406.771994 C1320.71573,390.81945 1321.02086,377.007589 1321.37769,376.078787 C1321.86691,374.804111 1323.56303,374.390148 1328.29622,374.390148 C1334.10342,374.390148 1334.61672,374.588114 1335.24034,377.073157 C1335.61104,378.548825 1335.70056,393.321642 1335.4383,409.901499 C1335.00078,437.700492 1334.78139,440.51199 1332.63387,446.023646 C1329.89374,453.05485 1324.57841,458.744172 1317.67955,462.030032 C1311.4859,464.980107 1293.85047,465.947997 1287.10178,463.708332 L1287.10796,463.708205 Z M1347.91185,463.796471 C1347.62942,463.061348 1347.52476,443.004473 1347.67859,419.224698 L1347.95724,375.988756 L1369.84181,376.026584 C1384.11324,376.051803 1393.28898,376.52213 1396.21849,377.390155 C1405.90741,380.261043 1415.09097,390.333487 1418.67247,402.017654 C1421.56794,411.463541 1421.2473,430.512176 1418.03573,439.837644 C1413.67185,452.509498 1405.6425,460.556634 1394.36892,463.556768 C1386.59653,465.625199 1348.68779,465.825183 1347.91147,463.801388 L1347.91185,463.796471 Z M1389.5916,456.467561 C1395.88928,454.727728 1401.32136,448.476409 1403.96049,439.93171 C1406.7498,430.900416 1407.01029,410.805965 1404.44971,402.183466 C1402.24886,394.772091 1398.25732,388.850128 1393.45226,385.867269 C1389.96923,383.705277 1388.23339,383.470365 1375.71344,383.46633 L1361.83553,383.462043 L1361.55436,419.218646 C1361.39927,438.884758 1361.50392,455.579235 1361.78762,456.317384 C1362.44958,458.043598 1383.476,458.15746 1389.59185,456.467434 L1389.5916,456.467561 Z M1431.20024,463.85006 C1430.90772,463.085936 1430.79298,443.004347 1430.9468,419.224572 L1431.22672,375.988756 L1437.63195,375.988756 L1444.03717,375.988756 L1444.03717,420.29359 L1444.03717,464.598549 L1437.88588,464.918825 C1433.57761,465.143271 1431.57497,464.817951 1431.20137,463.849556 L1431.20024,463.85006 Z M1480.55681,464.466656 C1480.13946,464.049287 1479.79902,446.292603 1479.79902,425.006698 C1479.79902,403.720667 1479.50776,385.544975 1479.15093,384.616173 C1478.60876,383.2033 1476.36315,382.927534 1465.39747,382.927534 C1453.52372,382.927534 1452.24318,382.740916 1451.77325,380.943963 C1451.48829,379.853258 1451.6976,378.171554 1452.23599,377.207446 C1453.11356,375.639983 1456.7571,375.454374 1486.66056,375.454374 C1522.46011,375.454374 1523.60675,375.62586 1521.98325,380.74108 C1521.33264,382.790093 1520.45558,382.927534 1508.01708,382.927534 C1500.71739,382.927534 1494.63923,383.053627 1494.51024,383.194852 C1494.38163,383.34112 1494.02102,401.717426 1493.70959,424.030107 L1493.14346,464.598423 L1487.22959,464.912395 C1483.97705,465.085142 1480.97453,464.887176 1480.55744,464.467286 L1480.55681,464.466656 Z M1552.71119,463.205724 C1537.39312,457.741479 1528.19228,445.217281 1525.50562,426.173185 C1522.4441,404.472434 1532.35228,383.66417 1549.4212,375.947524 C1555.10761,373.376737 1557.50755,372.917002 1565.20164,372.924315 C1584.52967,372.936925 1597.76277,383.017565 1603.75682,402.277279 C1606.00773,409.509602 1606.45421,425.096729 1604.63691,432.981583 C1601.83374,445.141625 1592.09477,457.412376 1581.52551,462.101149 C1574.23667,465.334681 1560.18942,465.873224 1552.71157,463.205724 L1552.71119,463.205724 Z M1574.22305,456.148041 C1594.92858,447.496288 1598.99464,403.126012 1580.63307,386.200029 C1566.91088,373.550746 1547.19236,381.169544 1541.17069,401.44746 C1534.47395,423.998962 1541.94486,449.513273 1557.1951,456.175907 C1561.44979,458.034646 1569.7404,458.021028 1574.22305,456.150689 L1574.22305,456.148041 Z M1614.79626,463.79584 C1614.51382,463.060717 1614.40917,443.003716 1614.563,419.223942 L1614.84291,375.988126 L1640.46382,375.988126 C1667.99798,375.988126 1671.35757,376.49502 1677.36777,381.552111 C1682.53167,385.897532 1685.13386,392.040284 1685.18593,400.008864 C1685.26158,411.546762 1679.66029,419.228733 1668.36641,423.077095 C1665.64355,424.00514 1663.41585,425.109464 1663.41585,425.531498 C1663.41585,425.953909 1664.90746,427.710008 1666.73055,429.43471 C1674.28015,436.576372 1688.43318,461.89196 1686.15176,464.173489 C1685.56419,464.761083 1682.0253,465.096491 1678.28745,464.91996 L1671.4916,464.598423 L1668.7105,457.052254 C1663.10429,441.840507 1653.14012,428.956943 1645.22601,426.687015 C1640.1505,425.231396 1631.01851,425.362028 1629.46814,426.912722 C1628.5704,427.810505 1628.18709,433.721498 1628.18709,446.663064 L1628.18709,465.132301 L1621.74833,465.132301 C1617.5785,465.132301 1615.129,464.661974 1614.79702,463.796471 L1614.79626,463.79584 Z M1663.00821,415.422865 C1668.86382,411.044534 1670.35405,407.917424 1670.35405,400.008864 C1670.35405,391.620015 1668.39566,387.930531 1662.27161,384.781986 C1659.19684,383.201156 1656.22005,382.944935 1643.66568,383.180603 L1628.72006,383.46053 L1628.42376,399.427449 C1628.26111,408.20933 1628.37332,416.051439 1628.68728,416.854652 C1629.13363,418.019752 1632.36701,418.244829 1644.65609,417.969315 C1658.23429,417.66417 1660.41434,417.361546 1663.00846,415.422486 L1663.00821,415.422865 Z M1696.15299,464.420001 C1695.76212,464.029112 1695.4406,444.42756 1695.4406,420.862396 C1695.4406,388.961216 1695.76843,377.689248 1696.72164,376.735354 C1697.42647,376.030493 1700.21249,375.454248 1702.91341,375.454248 C1705.61419,375.454248 1708.40047,376.030493 1709.10504,376.735354 C1710.05826,377.688618 1710.38609,388.744084 1710.38609,419.885426 C1710.38609,442.913307 1710.09483,462.51423 1709.738,463.443032 C1709.2513,464.710772 1707.56653,465.131671 1702.97695,465.131671 C1699.61471,465.131671 1696.54361,464.811394 1696.15223,464.420506 L1696.15299,464.420001 Z M1717.85953,463.585265 C1717.85953,461.396793 1748.59958,378.604936 1750.07,376.833076 C1750.76727,375.993296 1753.65895,375.453869 1757.46451,375.453869 C1762.77606,375.453869 1763.94665,375.814496 1765.26073,377.855943 C1767.37219,381.135877 1798.99245,461.389731 1798.99245,463.468755 C1798.99245,464.799163 1797.63853,465.131292 1792.21552,465.131292 L1785.43859,465.131292 L1783.69606,461.127836 C1782.7378,458.925998 1780.12956,452.320232 1777.90022,446.44858 L1773.84702,435.772654 L1758.48065,435.475074 C1749.09081,435.2935 1742.69252,435.601168 1742.0298,436.261896 C1741.43341,436.858316 1738.75356,443.4777 1736.07458,450.971666 L1731.20371,464.597036 L1724.53168,464.914791 C1719.09152,465.174542 1717.85953,464.9274 1717.85953,463.584634 L1717.85953,463.585265 Z M1770.16893,426.965933 C1770.16893,424.707605 1758.11361,390.400191 1757.32002,390.400191 C1756.26341,390.400191 1744.66061,425.737408 1745.31488,426.96505 C1745.87219,428.010362 1770.16893,428.011623 1770.16893,426.965933 L1770.16893,426.965933 Z M1694.64058,367.273452 C1692.65899,366.474022 1692.97396,364.738602 1696.5194,356.918812 L1699.73261,349.831748 L1706.12724,349.831748 C1709.96496,349.831748 1712.52188,350.289466 1712.52188,350.976674 C1712.52188,352.339993 1700.69238,366.913583 1699.58571,366.913583 C1699.16332,366.913583 1698.17871,367.115332 1697.39672,367.362474 C1696.61497,367.609617 1695.37453,367.569267 1694.64058,367.274209 L1694.64058,367.273452 Z M722.469551,312.358388 C703.651786,309.613719 690.774403,303.822767 680.307895,293.398397 C676.289132,289.395709 671.694062,283.444909 669.73985,279.712288 C665.754335,272.099807 661.712309,257.557488 662.590153,253.98928 C663.178097,251.599336 663.428506,251.560071 676.208562,251.854095 L689.227995,252.153566 L690.606077,260.425526 C692.751778,273.305043 695.757595,280.115735 702.091722,286.450162 C706.73956,291.098231 709.071706,292.467514 716.606183,294.972165 C724.462068,297.583553 727.252176,297.962715 738.94971,298.008109 C751.92152,298.058546 752.524569,297.957672 759.363789,294.590355 C767.73343,290.46972 774.296645,283.757443 778.231812,275.293708 C782.012485,267.162265 782.251509,253.442174 778.729226,246.742809 C772.924072,235.701516 761.729777,229.782516 730.226219,221.096807 C697.609349,212.104148 688.029309,207.55921 677.885988,196.265718 C671.706608,189.385637 669.195266,182.322657 669.300953,172.120866 C669.482897,154.558214 679.846265,138.799475 696.612894,130.58988 C707.368445,125.323538 715.145652,123.501631 729.853215,122.802937 C770.203654,120.886019 796.911903,137.996388 803.013159,169.672125 C804.596184,177.890686 804.494759,177.956178 790.185606,177.956178 C781.393448,177.956178 777.311212,177.555454 776.591519,176.621697 C776.025766,175.887709 774.803389,172.11871 773.875034,168.246113 C769.112142,148.377772 759.157498,139.039859 740.4562,136.897713 C736.690039,136.466349 731.13247,136.67188 727.179234,137.38872 C709.315293,140.628241 698.666627,152.40269 697.515288,170.18883 C697.073857,177.008601 697.354527,178.593491 699.94007,183.878318 C705.296933,194.827891 711.942836,198.215206 743.797005,206.231487 C783.768627,216.290591 797.274554,224.206666 805.880596,242.619842 C808.494383,248.21221 808.839761,250.196235 808.841148,259.626663 C808.842207,269.77779 808.64773,270.70175 804.87674,278.42402 C797.934444,292.640426 788.233664,301.414893 772.578442,307.638344 C759.074268,313.006633 739.534175,314.847214 722.469576,312.358262 L722.469551,312.358388 Z M829.881489,312.257513 C828.905574,311.281553 828.600443,289.691436 828.600443,221.599767 C828.600443,172.442643 828.892083,131.463264 829.248405,130.534475 C829.792471,129.116532 832.083223,128.845773 843.535657,128.845773 C856.777671,128.845773 857.19367,128.915124 857.818621,131.247846 C858.996149,135.642053 858.579809,309.24351 857.386394,311.473592 C856.389927,313.335483 855.046431,313.538619 843.721913,313.538619 C835.376884,313.538619 830.732653,313.108642 829.881489,312.257513 L829.881489,312.257513 Z M884.616556,312.232295 C884.329077,311.48078 884.219381,270.029547 884.370686,220.119787 L884.646817,129.374784 L902.00511,129.081365 C919.171625,128.791225 919.37513,128.814804 920.417871,131.216537 C920.997872,132.552254 933.135652,168.151228 947.390688,210.32539 C961.645724,252.49954 973.776696,287.018274 974.348249,287.033683 C974.919424,287.048814 987.490314,252.302759 1002.28261,209.819606 C1017.07503,167.336452 1029.4815,131.724163 1029.85257,130.681159 C1030.4641,128.962396 1031.99442,128.812433 1046.19271,129.079776 L1061.85816,129.374708 L1061.85816,221.187304 L1061.85816,312.999824 L1049.05968,313.302447 C1037.95342,313.564721 1036.0833,313.365494 1034.91485,311.763985 C1033.86328,310.325262 1033.56836,294.271591 1033.56836,238.384563 C1033.56836,199.038733 1033.17623,167.303075 1032.69836,167.860886 C1032.21923,168.418722 1021.34131,200.822673 1008.5243,239.869726 C995.707288,278.916766 984.750945,311.464766 984.17687,312.198754 C983.46826,313.105363 979.763189,313.533323 972.625899,313.533323 C963.690858,313.533323 961.977334,313.253397 961.173654,311.665002 C960.654175,310.637343 949.747131,277.248655 936.93655,237.467652 C924.126094,197.686636 913.248555,165.138536 912.76438,165.138536 C912.280205,165.138536 911.760726,198.407258 911.609421,239.069035 L911.335812,312.999445 L898.237626,313.299547 C888.351258,313.525254 885.011461,313.261719 884.617691,312.231538 L884.616556,312.232295 Z M1088.67198,311.875451 C1087.81711,309.648016 1087.80576,132.755794 1088.66026,130.529141 C1089.23648,129.027485 1094.12803,128.840439 1132.82317,128.840439 C1182.66479,128.840439 1190.21741,129.590567 1202.94125,135.804221 C1219.72458,144.000286 1229.42712,161.256192 1229.33961,182.753656 C1229.23874,207.271529 1216.83517,226.42182 1196.52669,233.409257 C1185.29825,237.272611 1178.3511,238.024202 1147.79438,238.681437 L1117.36955,239.33586 L1116.8362,276.167659 L1116.30285,312.999445 L1102.81783,313.297025 C1091.22638,313.552994 1089.24013,313.347462 1088.67299,311.875199 L1088.67198,311.875451 Z M1177.68536,220.888236 C1188.84622,216.464952 1195.82438,208.266416 1198.65126,196.255971 C1201.26101,185.167368 1200.04212,171.359125 1195.69464,162.76477 C1190.84848,153.184291 1179.02945,145.79787 1165.40863,143.837147 C1157.31068,142.671416 1121.2785,142.310222 1118.52425,143.367198 C1117.02684,143.941804 1116.83569,148.455534 1116.83569,183.223832 C1116.83569,204.788566 1117.1963,222.79344 1117.63635,223.234665 C1118.07639,223.675865 1130.4468,223.852017 1145.12549,223.626058 C1169.47771,223.251183 1172.32779,223.01148 1177.68536,220.888261 L1177.68536,220.888236 Z M1311.66129,312.77046 C1286.16092,309.243762 1263.49536,293.08039 1251.48443,269.857102 C1242.48785,252.462267 1238.92236,234.4841 1239.92627,211.578579 C1241.20454,182.412309 1250.59652,159.937661 1268.34127,143.582388 C1277.59241,135.055707 1285.16458,130.514388 1296.97075,126.4121 C1305.02129,123.614812 1308.25618,123.095283 1320.20168,122.681421 C1331.77156,122.280571 1335.64118,122.574241 1343.46892,124.444404 C1381.70006,133.580708 1405.86126,166.104787 1407.96074,211.258795 C1409.87739,252.478054 1394.75575,284.928735 1365.33937,302.723487 C1351.74805,310.945136 1329.1062,315.183126 1311.66129,312.77046 L1311.66129,312.77046 Z M1336.19684,297.313714 C1347.80127,294.371205 1360.53116,284.121171 1367.76276,271.897327 C1377.1067,256.102903 1381.18121,236.338513 1380.19773,211.578579 C1379.47399,193.350925 1376.92072,182.222892 1370.36104,168.701738 C1349.91626,126.560297 1299.74353,125.667797 1278.2086,167.062477 C1271.41086,180.129267 1268.33761,193.277954 1267.6459,212.254539 C1266.98268,230.441454 1268.28264,241.382717 1272.7639,255.349698 C1283.26747,288.084127 1308.01939,304.458654 1336.19684,297.313714 L1336.19684,297.313714 Z M1483.00113,312.877891 C1450.55701,308.927899 1428.42027,291.885027 1421.64964,265.643587 C1420.68634,261.910437 1420.04506,257.346496 1420.22423,255.501489 L1420.54953,252.146933 L1433.24361,252.146933 C1447.82761,252.146933 1446.97185,251.549882 1448.69635,262.928979 C1451.66872,282.542776 1459.78811,291.328843 1479.71492,296.494361 C1492.91537,299.916276 1506.49798,299.232725 1516.25574,294.655545 C1530.32341,288.056474 1537.62814,277.073348 1538.33436,261.458683 C1538.68992,253.596878 1538.42262,251.981499 1535.89785,246.824266 C1531.06039,236.936195 1520.96371,230.782863 1499.14218,224.423723 C1492.02569,222.349869 1480.33704,218.943174 1473.16722,216.853269 C1443.39148,208.173977 1428.17932,194.956493 1426.6959,176.475341 C1425.17769,157.559772 1436.36805,138.955389 1454.38149,130.44747 C1467.58269,124.212431 1473.97569,122.966038 1492.60834,122.994712 C1511.23558,123.023713 1520.57864,124.958423 1532.60357,131.27826 C1546.23813,138.443955 1557.30745,153.235598 1560.04266,167.944082 C1561.94266,178.161281 1562.07228,178.065325 1546.83124,177.715681 L1533.75764,177.415705 L1531.56461,168.87499 C1525.67041,145.922374 1514.2971,136.741938 1492.07462,136.999092 C1471.66804,137.235264 1459.02692,147.002261 1455.27028,165.435599 C1453.92089,172.05695 1454.89832,179.626282 1457.82241,185.209067 C1462.03258,193.245763 1473.24375,199.543799 1490.47331,203.551252 C1530.05081,212.75663 1544.53305,218.810347 1555.42194,230.700449 C1571.78528,248.568486 1569.99232,275.47566 1551.18478,294.284075 C1544.12541,301.343776 1532.47193,307.718413 1520.89814,310.851323 C1514.60576,312.554589 1490.80088,313.827625 1483.0005,312.877891 L1483.00113,312.877891 Z M1587.05607,312.231034 C1586.76986,311.479519 1586.6589,270.029295 1586.8102,220.119534 L1587.08634,129.374531 L1600.96437,129.374531 L1614.84241,129.374531 L1614.84241,221.187127 L1614.84241,312.999697 L1601.20999,313.298538 C1590.8953,313.524245 1587.45085,313.26071 1587.05633,312.230529 L1587.05607,312.231034 Z M1705.5828,312.770712 C1685.63329,310.011669 1665.22015,298.169256 1653.30315,282.44122 C1646.60528,273.6015 1639.69746,258.881428 1636.58198,246.809248 C1634.43068,238.473636 1634.10436,234.655574 1634.11836,217.984362 C1634.13097,201.718035 1634.49914,197.3162 1636.50506,189.312881 C1641.3656,169.926468 1649.66251,155.196195 1662.26278,143.58264 C1671.51796,135.052214 1679.09113,130.511589 1690.89226,126.417282 C1703.18689,122.151691 1722.46398,121.116555 1735.60718,124.016167 C1755.25004,128.349684 1770.78537,138.107791 1782.38022,153.39527 C1795.05538,170.107172 1800.77344,187.362384 1801.86144,212.183259 C1803.65869,253.185197 1787.90788,286.134651 1758.34069,303.224455 C1744.6789,311.12091 1722.57443,315.120584 1705.5828,312.770712 L1705.5828,312.770712 Z M1730.11835,297.313966 C1741.72278,294.371457 1754.45267,284.121424 1761.68427,271.897579 C1767.02268,262.873965 1771.85194,248.186664 1773.44392,236.13336 C1775.20662,222.787438 1774.15253,199.162947 1771.27673,187.558093 C1762.73571,153.092419 1737.79075,132.461253 1710.34952,137.167124 C1688.64954,140.888422 1672.20047,158.595551 1664.75224,186.251542 C1662.20112,195.724627 1661.95147,198.453421 1661.89801,217.450572 C1661.84757,235.593202 1662.14514,239.476063 1664.22154,247.664764 C1673.80656,285.473142 1699.74458,305.01586 1730.11835,297.313966 L1730.11835,297.313966 Z"/>
    <path fill="#A9CE47" d="M228.852719,653.472188 C228.454169,653.074257 228.128174,615.638456 228.128174,570.282456 L228.128174,487.81731 L265.722144,488.096869 L303.316113,488.376428 L303.316113,571.005657 L303.316113,653.635012 L266.446739,653.91457 C246.168581,654.068202 229.251294,653.864199 228.852769,653.470047 L228.852719,653.472188 Z"/>
    <polygon fill="#679E92" points="324.373 570.756 324.646 488.38 361.44 488.38 398.234 488.38 398.234 570.476 398.234 652.572 361.167 652.853 324.1 653.134"/>
    <polygon fill="#309D6C" points="133.203 570.761 133.203 488.142 170.281 488.423 207.359 488.704 207.632 571.043 207.906 653.381 170.554 653.381 133.203 653.381"/>
    <path fill="#1F7866" d="M11.4350268,696.889762 C11.4350268,696.179391 309.595055,695.822946 903.780431,695.822946 C1498.40569,695.822946 1795.90583,696.178131 1795.46625,696.889762 C1794.55105,698.370079 11.4350268,698.370079 11.4350268,696.889762 Z M1426.14742,674.575423 C1404.63043,671.145741 1389.91409,661.665312 1382.41757,646.404427 C1378.56538,638.562133 1376.05675,628.761658 1377.51768,627.261567 C1377.97024,626.796803 1382.37837,626.556234 1387.31243,626.728788 L1396.28375,627.04115 L1397.02625,633.005495 C1398.55929,645.313932 1404.23157,655.440371 1412.19678,660.089019 C1419.94354,664.610328 1432.11317,667.274975 1443.13438,666.863111 C1451.61456,666.546971 1453.85695,666.031826 1460.04267,662.987307 C1471.46425,657.364796 1478.40232,647.50525 1479.70593,635.044033 C1480.56567,626.824134 1478.7176,620.338095 1473.91918,614.737248 C1466.7295,606.345046 1460.07595,603.314633 1431.58863,595.457855 C1421.06612,592.555788 1409.44939,588.747368 1405.77381,586.994616 C1389.93641,579.442768 1382.94527,570.255177 1382.94527,556.994289 C1382.94527,533.106428 1402.06721,517.442496 1433.10944,515.901847 C1453.33618,514.898007 1470.20679,519.885467 1481.13635,530.09982 C1487.31565,535.874859 1493.71997,547.864511 1494.18362,554.526254 L1494.48113,558.79188 L1484.96044,558.79188 L1475.43974,558.79188 L1473.13634,551.327065 C1468.53407,536.412676 1462.5421,529.144724 1451.90488,525.574606 C1444.67397,523.147757 1431.12106,523.158211 1423.85587,525.599796 C1403.26127,532.510925 1395.52977,560.446138 1410.3317,574.464377 C1415.17285,579.049167 1423.99189,582.463482 1443.88318,587.453712 C1474.70455,595.18605 1486.1676,600.829343 1493.65202,611.955213 C1498.00771,618.430169 1499.27085,623.015966 1499.27728,632.376615 C1499.27728,638.426482 1498.68857,641.094908 1496.1512,646.45443 C1490.27722,658.860228 1480.7569,666.808322 1465.66339,671.907501 C1458.63633,674.281576 1454.85775,674.848991 1444.31696,675.113113 C1437.27263,675.289446 1429.09626,675.050137 1426.14754,674.579075 L1426.14742,674.575423 Z M1566.52535,674.355006 C1556.67462,672.747351 1547.61758,669.215144 1541.17494,664.468506 C1534.17699,659.312649 1530.02565,653.823773 1526.88369,645.572638 C1522.10569,633.025396 1521.69775,627.198464 1521.69775,571.494926 L1521.69775,518.802151 L1531.83741,518.802151 L1541.97695,518.802151 L1542.00216,569.722525 C1542.01388,597.728775 1542.49128,624.002047 1543.0636,628.107714 C1545.57525,646.127206 1551.82414,657.564305 1562.29093,663.298787 C1567.83122,666.334238 1568.75853,666.496968 1580.4045,666.479461 C1590.95197,666.466865 1593.46161,666.11042 1598.24351,663.965453 C1605.04896,660.913376 1612.74945,652.935432 1616.16068,645.402602 C1621.74497,633.071116 1622.21165,627.860722 1622.79494,571.322119 L1623.337,518.802151 L1633.45561,518.802151 L1643.57409,518.802151 L1643.08497,572.921713 C1642.55425,631.557044 1642.27691,634.648417 1636.36436,647.812196 C1632.71348,655.94015 1623.43092,664.923194 1614.24379,669.218671 C1602.10101,674.895971 1582.66517,676.988165 1566.52988,674.355006 L1566.52535,674.355006 Z M1670.05578,598.167467 L1670.05578,520.772423 L1715.15024,521.214515 C1763.8502,521.691874 1766.24373,521.948817 1776.15686,527.752951 C1782.18135,531.280371 1785.93661,535.785307 1790.03047,544.395658 C1793.03011,550.704357 1793.32648,552.285311 1793.329,561.991195 C1793.329,571.288112 1792.97099,573.423381 1790.51896,578.648261 C1788.97218,581.944558 1785.92312,586.613736 1783.74339,589.024337 C1778.95379,594.321135 1767.9994,599.997302 1758.80356,601.947043 C1755.08625,602.735505 1751.80499,604.004852 1751.51164,604.768375 C1751.21414,605.542982 1754.71311,609.828005 1759.43122,614.466198 C1764.08013,619.036377 1770.91332,627.334619 1774.61613,632.906497 C1781.34909,643.038478 1796,671.278873 1796,674.125269 C1796,675.350785 1793.87182,675.577625 1784.6775,675.331892 L1773.35501,675.029607 L1769.92247,665.432041 C1762.62702,645.034696 1753.13103,629.150725 1741.45859,617.820686 C1730.39591,607.082496 1727.13342,605.845771 1708.55557,605.347 C1694.65271,604.974181 1693.01832,605.121545 1691.74522,606.860569 C1690.64722,608.360409 1690.33497,616.187588 1690.33497,642.175201 L1690.33497,675.562889 L1680.19531,675.562889 L1670.05578,675.562889 L1670.05578,598.167467 Z M1753.55586,593.671599 C1762.00679,589.512402 1767.31854,583.778298 1770.47689,575.405745 C1772.31311,570.53794 1772.64616,567.710563 1772.30806,559.858319 C1771.95761,551.724445 1771.41933,549.389793 1768.77392,544.549698 C1764.99093,537.627108 1760.04792,533.377099 1752.23965,530.334218 C1746.81811,528.221368 1744.31691,528.039744 1719.51475,527.95649 C1704.74459,527.906109 1692.2569,528.265073 1691.76438,528.753768 C1690.33156,530.172747 1690.02498,593.011483 1691.43788,595.649176 C1692.60647,597.831048 1693.16921,597.868708 1719.52685,597.529014 L1746.42316,597.182646 L1753.55586,593.671599 Z M0.273700542,321.591957 C-0.5236406,320.302962 -0.105619537,320.100304 8.8948303,317.412356 C24.7445855,312.678691 32.3444127,305.523467 69.6615665,260.200526 C101.387764,221.667964 99.504123,224.294989 97.7245962,221.062524 C92.8540205,212.215244 27.9932118,118.452471 23.175582,113.294473 C18.6511848,108.450435 15.9594241,106.556075 11.4350268,105.031901 C8.20636877,103.944177 5.5647429,102.421351 5.5647429,101.647714 C5.5647429,100.5018 15.5058536,100.241104 59.197753,100.241104 C94.0636595,100.241104 112.924124,100.6143 113.097586,101.307542 C113.244322,101.894102 110.482647,102.673381 106.960479,103.039361 C94.8012978,104.302814 90.9316405,107.461937 90.9838553,116.082452 C91.0153708,121.385951 91.6523612,122.529963 110.052499,150.361756 C131.271871,182.457892 131.652212,182.969573 133.70523,182.182434 C135.757,181.395736 161.330472,149.971531 167.919939,140.140009 C174.714735,130.002096 177.34968,123.382219 176.460817,118.682485 C174.83225,110.071681 168.366475,104.758925 157.813183,103.360199 C154.199998,102.881328 152.321727,102.127756 152.321727,101.157016 C152.321727,99.9225577 158.711537,99.7273443 191.457197,99.961351 C219.364856,100.160859 230.707862,100.586578 230.994199,101.445472 C231.241532,102.187457 229.203415,102.923522 225.68605,103.362605 C218.095262,104.310144 210.130914,108.124647 203.974495,113.761202 C199.183464,118.147667 143.978803,183.673999 140.130413,189.542293 L138.298129,192.336268 L162.559613,228.401172 C216.865705,309.127718 218.396486,311.172427 228.183676,316.058873 C231.848281,317.888582 235.490321,319.385525 236.277098,319.385525 C237.06385,319.385525 237.70761,320.105972 237.70761,320.985119 C237.70761,322.385457 231.12577,322.584713 184.875092,322.584713 C140.964198,322.584713 132.042575,322.339106 132.042575,321.13009 C132.042575,320.210639 133.841793,319.428979 136.933421,319.005653 C151.046284,317.072915 155.691499,309.029349 149.338991,297.524362 C143.578721,287.092035 106.306243,233.007412 104.87703,233.007412 C104.077168,233.007412 94.3727505,244.087826 83.31153,257.630558 C51.4825792,296.600124 49.0700834,301.485814 57.0042896,310.90692 C61.0711328,315.735805 67.4954585,318.563938 75.7412643,319.15541 C80.8661446,319.523191 82.9456985,320.092495 82.9456985,321.128453 C82.9456985,322.333816 75.881193,322.584713 41.9167294,322.584713 C17.7457078,322.584713 0.635460206,322.176628 0.273700542,321.592209 L0.273700542,321.591957 Z M251.265321,321.911876 C249.673286,320.321225 252.082706,319.385021 257.78292,319.379479 C261.123685,319.376205 265.767387,318.842923 268.102254,318.195528 C273.542944,316.686367 279.834275,310.400592 281.344723,304.964616 C283.231843,298.173016 282.898889,121.783494 280.98885,116.432549 C278.058618,108.223583 271.645537,104.251047 259.492356,103.116708 C255.1123,102.707867 251.420743,101.893459 251.288882,101.307 C251.131431,100.606454 270.456925,100.240562 307.617296,100.240562 C344.421895,100.240562 364.288132,100.613129 364.47938,101.307 C364.644143,101.904896 361.216181,102.705121 356.67764,103.128371 C342.820204,104.420667 335.636217,110.275182 334.311093,121.355735 C333.946396,124.405368 333.794743,167.295313 333.974255,216.666763 C334.29836,305.85724 334.314748,306.452365 336.535681,309.443228 C337.765036,311.098871 340.726821,313.835941 343.117395,315.525591 C346.731537,318.080029 348.92142,318.708909 356.114156,319.257935 C360.871805,319.620678 364.874319,320.397804 365.008626,320.984615 C365.281297,322.174865 252.449786,323.094946 251.265384,321.911624 L251.265321,321.911876 Z M377.789456,321.251886 C378.061497,320.428158 381.256787,319.672444 386.150167,319.274183 C390.506347,318.920257 395.031098,318.248931 396.205149,317.783412 C401.080301,315.851303 405.173176,311.733923 407.049922,306.873801 C408.900888,302.080561 409.013032,296.57972 409.013032,210.578456 C409.013032,123.565618 408.921007,119.161973 407.004653,114.917104 C403.591781,107.355671 394.747736,102.925399 383.041495,102.913169 C378.963898,102.908912 377.475259,102.529141 377.793818,101.574233 C378.401688,99.7522576 490.808762,99.6109014 491.416103,101.431277 C491.675412,102.208403 489.033269,102.799636 483.802736,103.135022 C472.695995,103.847156 466.587101,107.065313 462.954692,114.117634 L460.244564,119.379367 L460.244564,211.651103 C460.244564,303.183777 460.262213,303.956998 462.475846,308.188365 C463.864304,310.842684 466.654796,313.662378 469.863348,315.65318 C474.20904,318.349441 476.332992,318.911944 483.375084,319.231863 C489.62697,319.515256 491.730602,319.985058 491.730602,321.097973 C491.730602,322.351198 482.733984,322.584713 434.539862,322.584713 C389.263945,322.584713 377.440844,322.306359 377.789456,321.25176 L377.789456,321.251886 Z M506.673128,200.482472 C506.673128,189.045373 506.956389,179.687747 507.302554,179.687747 C507.64872,179.687747 510.582255,182.047829 513.821452,184.932363 C536.505826,205.133059 570.488606,205.018468 592.776642,184.6661 L598.462926,179.473666 L598.462926,200.3754 L598.462926,221.277134 L552.568021,221.277134 L506.673102,221.277134 L506.673128,200.482472 Z M541.442887,172.5957 C533.984148,170.308331 523.739833,159.972786 521.124605,152.096485 C518.294542,143.573129 519.190816,131.814612 523.236695,124.38747 C536.046999,100.871155 570.156421,100.871155 582.966724,124.38747 C587.012591,131.814612 587.908878,143.573129 585.078802,152.096485 C582.524991,159.787838 572.44975,170.02155 564.918967,172.573394 C558.497213,174.74946 548.496904,174.758956 541.442887,172.596066 L541.442887,172.5957 Z M506.929613,50.9204119 L507.206823,0 L552.568071,0 L597.929319,0 L598.206655,50.3872181 C598.35919,78.100188 598.189007,100.774436 597.829856,100.774436 C597.470076,100.774436 594.782942,98.6249719 591.858408,95.9978463 C570.429105,76.7478004 535.175735,77.0024381 513.755874,96.5619866 C510.576355,99.4653383 507.677412,101.840824 507.313749,101.840824 C506.95006,101.840824 506.77723,78.9266366 506.929764,50.9204119 L506.929613,50.9204119 Z"/>
  </g>
</svg>
