<svg xmlns="http://www.w3.org/2000/svg" width="311" height="41" viewBox="0 0 311 41">
  <defs>
    <linearGradient id="a" x1="51.127%" x2="51.127%" y1="-58.407%" y2="137.545%">
      <stop stop-color="#6DA296" offset="0%"/>
      <stop stop-color="#679E92" offset="36.593%"/>
      <stop stop-color="#60968A" offset="61.88%"/>
      <stop stop-color="#1F7866" offset="100%"/>
    </linearGradient>
  </defs>
  <path fill="url(#a)" fill-rule="evenodd" d="M16.9747543,37 L8.55776207,37 L8.55776207,10.2050781 L0.290183946,12.6206055 L0.290183946,6.24560547 L16.2027816,0.7421875 L16.9747543,0.7421875 L16.9747543,37 Z M47.890372,0.219238281 L47.890372,6.81835938 L47.5168368,6.81835938 C44.3791258,6.81835938 41.801759,7.56957257 39.7846591,9.07202148 C37.7675592,10.5744704 36.5266048,12.662096 36.0617587,15.3349609 C37.9543463,13.4755766 40.3449474,12.5458984 43.2336337,12.5458984 C46.3713447,12.5458984 48.8698549,13.6913948 50.7292392,15.9824219 C52.5886235,18.273449 53.5183017,21.2783017 53.5183017,24.9970703 C53.5183017,27.304699 52.9746059,29.4213771 51.8871982,31.347168 C50.7997904,33.2729588 49.2807626,34.7795356 47.3300693,35.8669434 C45.3793759,36.9543511 43.217044,37.4980469 40.8430087,37.4980469 C38.2697537,37.4980469 35.9704602,36.9128476 33.9450595,35.7424316 C31.9196587,34.5720156 30.3425261,32.8994249 29.2136142,30.7246094 C28.0847023,28.5497938 27.5036534,26.0429829 27.4704501,23.2041016 L27.4704501,19.8422852 C27.4704501,16.1069149 28.2714675,12.7492825 29.8735263,9.76928711 C31.4755851,6.78929174 33.7624274,4.45264519 36.734122,2.75927734 C39.7058165,1.0659095 43.0011937,0.219238281 46.6203525,0.219238281 L47.890372,0.219238281 Z M40.3200595,18.9707031 C39.2077492,18.9707031 38.278071,19.2280248 37.530997,19.7426758 C36.7839229,20.2573268 36.2277762,20.8881799 35.86254,21.6352539 L35.86254,24.1503906 C35.86254,28.7324448 37.4479733,31.0234375 40.6188876,31.0234375 C41.8972143,31.0234375 42.963854,30.4506893 43.8188388,29.3051758 C44.6738235,28.1596622 45.1013095,26.7236414 45.1013095,24.9970703 C45.1013095,23.2206942 44.6655228,21.7722224 43.7939364,20.6516113 C42.9223501,19.5310003 41.7644027,18.9707031 40.3200595,18.9707031 Z M59.8802085,40.112793 L53.9285483,40.112793 L66.3050132,0.7421875 L72.2815757,0.7421875 L59.8802085,40.112793 Z M99.6610606,22.1831055 C99.6610606,27.0805909 98.5612181,30.8574086 96.3615,33.5136719 C94.161782,36.1699352 91.0614712,37.4980469 87.0604746,37.4980469 C83.0262748,37.4980469 79.9052123,36.1616345 77.6971934,33.4887695 C75.4891745,30.8159046 74.3851817,27.0473876 74.3851817,22.1831055 L74.3851817,15.559082 C74.3851817,10.6615966 75.4850242,6.88477891 77.6847422,4.22851562 C79.8844603,1.57225234 82.9930717,0.244140625 87.01067,0.244140625 C91.0282682,0.244140625 94.14103,1.58055304 96.3490489,4.25341797 C98.5570677,6.9262829 99.6610606,10.7031006 99.6610606,15.5839844 L99.6610606,22.1831055 Z M91.2689707,14.4882812 C91.2689707,11.8818229 90.9286421,9.93530917 90.2479746,8.64868164 C89.5673072,7.36205411 88.4882164,6.71875 87.01067,6.71875 C85.5663268,6.71875 84.5162885,7.31640027 83.8605235,8.51171875 C83.2047585,9.70703723 82.8519788,11.5165894 82.8021739,13.9404297 L82.8021739,23.2041016 C82.8021739,25.9101698 83.1425025,27.8898863 83.82317,29.1433105 C84.5038374,30.3967348 85.5829282,31.0234375 87.0604746,31.0234375 C88.4882162,31.0234375 89.5424048,30.4133362 90.2230723,29.1931152 C90.9037398,27.9728943 91.2523691,26.0595833 91.2689707,23.453125 L91.2689707,14.4882812 Z M104.229999,19.2695312 L106.446307,0.7421875 L127.638202,0.7421875 L127.638202,7.26660156 L113.269549,7.26660156 L112.447772,14.4633789 C113.045431,14.1147444 113.829847,13.8076185 114.801044,13.5419922 C115.77224,13.2763659 116.72267,13.1435547 117.652362,13.1435547 C121.254919,13.1435547 124.023202,14.2101944 125.957294,16.3435059 C127.891385,18.4768173 128.858417,21.469219 128.858417,25.3208008 C128.858417,27.6450312 128.339623,29.7492582 127.30202,31.6335449 C126.264417,33.5178317 124.807645,34.9663035 122.931659,35.9790039 C121.055673,36.9917043 118.839386,37.4980469 116.282733,37.4980469 C114.008308,37.4980469 111.875028,37.0290574 109.882831,36.0910645 C107.890633,35.1530715 106.330102,33.8664633 105.20119,32.2312012 C104.072278,30.5959391 103.516131,28.7490337 103.532733,26.6904297 L111.949725,26.6904297 C112.032733,28.0185613 112.456069,29.07275 113.219745,29.8530273 C113.98342,30.6333047 114.987805,31.0234375 116.232928,31.0234375 C119.055208,31.0234375 120.466327,28.9316615 120.466327,24.7480469 C120.466327,20.8798635 118.739782,18.9458008 115.286639,18.9458008 C113.327645,18.9458008 111.866722,19.5766538 110.903827,20.8383789 L104.229999,19.2695312 Z M161.927445,24.6235352 L146.961136,24.6235352 L146.961136,18.1240234 L161.927445,18.1240234 L161.927445,24.6235352 Z M199.055556,37 L190.638563,37 L190.638563,10.2050781 L182.370985,12.6206055 L182.370985,6.24560547 L198.283583,0.7421875 L199.055556,0.7421875 L199.055556,37 Z M226.235822,22.9799805 C224.426242,24.6069417 222.400872,25.4204102 220.15965,25.4204102 C216.872524,25.4204102 214.266105,24.3081166 212.340314,22.0834961 C210.414523,19.8588756 209.451642,16.8872256 209.451642,13.168457 C209.451642,10.8442267 209.991187,8.68604512 211.070294,6.69384766 C212.149401,4.7016502 213.664279,3.12451753 215.614972,1.96240234 C217.565665,0.800287158 219.719697,0.219238281 222.07713,0.219238281 C224.467767,0.219238281 226.630099,0.821038904 228.564191,2.0246582 C230.498283,3.2282775 232.004859,4.92992064 233.083966,7.12963867 C234.163073,9.3293567 234.71922,11.86522 234.752423,14.7373047 L234.752423,17.949707 C234.752423,21.9507036 233.968007,25.4203955 232.399152,28.3588867 C230.830296,31.297378 228.593258,33.5551679 225.68797,35.1323242 C222.782682,36.7094805 219.395997,37.4980469 215.527814,37.4980469 L215.004865,37.4980469 L215.004865,30.7744141 L216.598615,30.7495117 C222.375987,30.4672837 225.588358,27.8774659 226.235822,22.9799805 Z M222.425763,19.3691406 C224.251944,19.3691406 225.563454,18.5805743 226.360333,17.003418 L226.360333,13.5170898 C226.360333,11.1928595 225.970201,9.47461494 225.189923,8.36230469 C224.409646,7.24999444 223.355457,6.69384766 222.027326,6.69384766 C220.848609,6.69384766 219.860826,7.32470072 219.063947,8.58642578 C218.267068,9.84815084 217.868634,11.3754793 217.868634,13.168457 C217.868634,15.0610446 218.275368,16.5676214 219.088849,17.6882324 C219.90233,18.8088435 221.014623,19.3691406 222.425763,19.3691406 Z M241.96101,40.112793 L236.00935,40.112793 L248.385814,0.7421875 L254.362377,0.7421875 L241.96101,40.112793 Z M281.741862,22.1831055 C281.741862,27.0805909 280.642019,30.8574086 278.442301,33.5136719 C276.242583,36.1699352 273.142272,37.4980469 269.141276,37.4980469 C265.107076,37.4980469 261.986014,36.1616345 259.777995,33.4887695 C257.569976,30.8159046 256.465983,27.0473876 256.465983,22.1831055 L256.465983,15.559082 C256.465983,10.6615966 257.565825,6.88477891 259.765543,4.22851562 C261.965262,1.57225234 265.073873,0.244140625 269.091471,0.244140625 C273.109069,0.244140625 276.221831,1.58055304 278.42985,4.25341797 C280.637869,6.9262829 281.741862,10.7031006 281.741862,15.5839844 L281.741862,22.1831055 Z M273.349772,14.4882812 C273.349772,11.8818229 273.009443,9.93530917 272.328776,8.64868164 C271.648108,7.36205411 270.569018,6.71875 269.091471,6.71875 C267.647128,6.71875 266.59709,7.31640027 265.941325,8.51171875 C265.28556,9.70703723 264.93278,11.5165894 264.882975,13.9404297 L264.882975,23.2041016 C264.882975,25.9101698 265.223304,27.8898863 265.903971,29.1433105 C266.584639,30.3967348 267.663729,31.0234375 269.141276,31.0234375 C270.569017,31.0234375 271.623206,30.4133362 272.303874,29.1931152 C272.984541,27.9728943 273.33317,26.0595833 273.349772,23.453125 L273.349772,14.4882812 Z M286.3108,19.2695312 L288.527108,0.7421875 L309.719003,0.7421875 L309.719003,7.26660156 L295.350351,7.26660156 L294.528573,14.4633789 C295.126233,14.1147444 295.910649,13.8076185 296.881845,13.5419922 C297.853041,13.2763659 298.803471,13.1435547 299.733163,13.1435547 C303.33572,13.1435547 306.104003,14.2101944 308.038095,16.3435059 C309.972187,18.4768173 310.939218,21.469219 310.939218,25.3208008 C310.939218,27.6450312 310.420424,29.7492582 309.382821,31.6335449 C308.345219,33.5178317 306.888446,34.9663035 305.01246,35.9790039 C303.136474,36.9917043 300.920188,37.4980469 298.363534,37.4980469 C296.089109,37.4980469 293.955829,37.0290574 291.963632,36.0910645 C289.971434,35.1530715 288.410903,33.8664633 287.281991,32.2312012 C286.153079,30.5959391 285.596933,28.7490337 285.613534,26.6904297 L294.030526,26.6904297 C294.113535,28.0185613 294.53687,29.07275 295.300546,29.8530273 C296.064222,30.6333047 297.068606,31.0234375 298.31373,31.0234375 C301.136009,31.0234375 302.547128,28.9316615 302.547128,24.7480469 C302.547128,20.8798635 300.820583,18.9458008 297.367441,18.9458008 C295.408446,18.9458008 293.947523,19.5766538 292.984628,20.8383789 L286.3108,19.2695312 Z"/>
</svg>
