<svg xmlns="http://www.w3.org/2000/svg" width="309" height="40" viewBox="0 0 309 40">
  <defs>
    <linearGradient id="a" x1="118.525%" x2="0%" y1="-58.407%" y2="132.845%">
      <stop stop-color="#FAB989" offset="0%"/>
      <stop stop-color="#F48534" offset="36.593%"/>
      <stop stop-color="#DF7B3D" offset="61.88%"/>
      <stop stop-color="#CA7246" offset="100%"/>
    </linearGradient>
  </defs>
  <path fill="url(#a)" fill-rule="evenodd" d="M16.9684884,36.7816092 L8.6207537,36.7816092 L8.6207537,10.2101293 L0.421203613,12.6055136 L0.421203613,6.28367457 L16.2028678,0.826149425 L16.9684884,0.826149425 L16.9684884,36.7816092 Z M52.5505803,5.27119253 L39.1151729,36.7816092 L30.3228843,36.7816092 L43.7829891,7.24676724 L26.6429657,7.24676724 L26.6429657,0.826149425 L52.5505803,0.826149425 L52.5505803,5.27119253 Z M59.5824315,39.8684447 L53.6797433,39.8684447 L65.954371,0.826149425 L71.8817566,0.826149425 L59.5824315,39.8684447 Z M99.0667189,22.0882723 C99.0667189,26.9449177 97.9759262,30.6902407 95.7943081,33.3243534 C93.61269,35.9584662 90.5378895,37.2755029 86.5698143,37.2755029 C82.568809,37.2755029 79.4734274,35.9502348 77.2835768,33.2996588 C75.0937262,30.6490828 73.9988173,26.9119913 73.9988173,22.0882723 L73.9988173,15.5194864 C73.9988173,10.6628409 75.08961,6.91751796 77.2712281,4.28340517 C79.4528462,1.64929239 82.5358791,0.332255747 86.5204194,0.332255747 C90.5049596,0.332255747 93.5921087,1.65752386 95.7819594,4.30809986 C97.97181,6.95867585 99.0667189,10.7039988 99.0667189,15.544181 L99.0667189,22.0882723 Z M90.7436816,14.4576149 C90.7436816,11.8728918 90.4061533,9.94260995 89.7310866,8.66671157 C89.0560198,7.39081318 87.9858081,6.75287356 86.5204194,6.75287356 C85.0879607,6.75287356 84.0465624,7.34554005 83.3961932,8.5308908 C82.745824,9.71624156 82.3959471,11.510704 82.346552,13.9143319 L82.346552,23.1007543 C82.346552,25.7842567 82.6840803,27.7474645 83.3591471,28.9904364 C84.0342138,30.2334084 85.1044255,30.8548851 86.5698143,30.8548851 C87.9858079,30.8548851 89.0313224,30.2498714 89.7063891,29.0398258 C90.3814559,27.8297802 90.7272166,25.9324243 90.7436816,23.3477011 L90.7436816,14.4576149 Z M103.628826,19.1989943 L105.826898,0.826149425 L126.84442,0.826149425 L126.84442,7.29615661 L112.593997,7.29615661 L111.778981,14.4329203 C112.371723,14.087193 113.149684,13.7826282 114.112889,13.519217 C115.076094,13.2558057 116.018704,13.124102 116.940746,13.124102 C120.51366,13.124102 123.259165,14.1818471 125.177343,16.2973689 C127.09552,18.4128907 128.054594,21.3803389 128.054594,25.1998024 C128.054594,27.5046511 127.540069,29.5913311 126.511004,31.4599048 C125.481939,33.3284786 124.037153,34.7648717 122.176604,35.7691272 C120.316054,36.7733827 118.118004,37.2755029 115.582387,37.2755029 C113.326676,37.2755029 111.21095,36.8104243 109.235145,35.8802532 C107.25934,34.9500822 105.711649,33.6742029 104.592026,32.0525772 C103.472403,30.4309515 102.920833,28.5994475 102.937298,26.5580101 L111.285033,26.5580101 C111.367358,27.8750665 111.78721,28.9204643 112.544602,29.6942349 C113.301994,30.4680055 114.298114,30.8548851 115.532992,30.8548851 C118.332049,30.8548851 119.731557,28.7805524 119.731557,24.6318247 C119.731557,20.795898 118.019218,18.8779634 114.594489,18.8779634 C112.651614,18.8779634 111.202712,19.5035558 110.24774,20.7547593 L103.628826,19.1989943 Z M160.913049,24.5083513 L146.069887,24.5083513 L146.069887,18.0630388 L160.913049,18.0630388 L160.913049,24.5083513 Z M197.797186,36.7816092 L189.449451,36.7816092 L189.449451,10.2101293 L181.249901,12.6055136 L181.249901,6.28367457 L197.031565,0.826149425 L197.797186,0.826149425 L197.797186,36.7816092 Z M224.784568,22.8785022 C222.989879,24.4918962 220.981174,25.2985812 218.758393,25.2985812 C215.498315,25.2985812 212.913342,24.195563 211.003397,21.9894935 C209.093452,19.7834241 208.138494,16.8365546 208.138494,13.1487967 C208.138494,10.843948 208.6736,8.70376347 209.743827,6.72817888 C210.814055,4.75259429 212.316468,3.18861328 214.25111,2.03618894 C216.185753,0.883764592 218.32206,0.307561063 220.660096,0.307561063 C223.031062,0.307561063 225.175602,0.90434329 227.093779,2.09792565 C229.011956,3.291508 230.506137,4.9789612 231.576364,7.16033585 C232.646592,9.3417105 233.198163,11.8564273 233.231093,14.7045618 L233.231093,17.890176 C233.231093,21.8578084 232.453131,25.2985666 230.897185,28.2125539 C229.341238,31.1265412 227.122607,33.3655034 224.241225,34.9295079 C221.359842,36.4935124 218.001024,37.2755029 214.164669,37.2755029 L213.646023,37.2755029 L213.646023,30.6079382 L215.226659,30.5832435 C220.956494,30.3033691 224.142432,27.7351476 224.784568,22.8785022 Z M221.00586,19.297773 C222.817015,19.297773 224.117733,18.5157825 224.908056,16.951778 L224.908056,13.4945223 C224.908056,11.1896736 224.521133,9.48575743 223.747276,8.3827227 C222.973419,7.27968797 221.927904,6.72817888 220.610701,6.72817888 C219.441683,6.72817888 218.462028,7.35377128 217.671706,8.60497486 C216.881384,9.85617843 216.486228,11.3707706 216.486228,13.1487967 C216.486228,15.0256021 216.889616,16.5196155 217.696403,17.6308818 C218.50319,18.7421482 219.606331,19.297773 221.00586,19.297773 Z M240.411129,39.8684447 L234.50844,39.8684447 L246.783068,0.826149425 L252.710454,0.826149425 L240.411129,39.8684447 Z M279.895416,22.0882723 C279.895416,26.9449177 278.804623,30.6902407 276.623005,33.3243534 C274.441387,35.9584662 271.366587,37.2755029 267.398511,37.2755029 C263.397506,37.2755029 260.302125,35.9502348 258.112274,33.2996588 C255.922423,30.6490828 254.827514,26.9119913 254.827514,22.0882723 L254.827514,15.5194864 C254.827514,10.6628409 255.918307,6.91751796 258.099925,4.28340517 C260.281543,1.64929239 263.364576,0.332255747 267.349117,0.332255747 C271.333657,0.332255747 274.420806,1.65752386 276.610657,4.30809986 C278.800507,6.95867585 279.895416,10.7039988 279.895416,15.544181 L279.895416,22.0882723 Z M271.572379,14.4576149 C271.572379,11.8728918 271.23485,9.94260995 270.559784,8.66671157 C269.884717,7.39081318 268.814505,6.75287356 267.349117,6.75287356 C265.916658,6.75287356 264.87526,7.34554005 264.22489,8.5308908 C263.574521,9.71624156 263.224644,11.510704 263.175249,13.9143319 L263.175249,23.1007543 C263.175249,25.7842567 263.512777,27.7474645 264.187844,28.9904364 C264.862911,30.2334084 265.933123,30.8548851 267.398511,30.8548851 C268.814505,30.8548851 269.86002,30.2498714 270.535086,29.0398258 C271.210153,27.8297802 271.555914,25.9324243 271.572379,23.3477011 L271.572379,14.4576149 Z M284.457523,19.1989943 L286.655595,0.826149425 L307.673117,0.826149425 L307.673117,7.29615661 L293.422694,7.29615661 L292.607678,14.4329203 C293.20042,14.087193 293.978382,13.7826282 294.941587,13.519217 C295.904792,13.2558057 296.847401,13.124102 297.769443,13.124102 C301.342358,13.124102 304.087862,14.1818471 306.00604,16.2973689 C307.924217,18.4128907 308.883291,21.3803389 308.883291,25.1998024 C308.883291,27.5046511 308.368767,29.5913311 307.339701,31.4599048 C306.310636,33.3284786 304.865851,34.7648717 303.005301,35.7691272 C301.144751,36.7733827 298.946701,37.2755029 296.411084,37.2755029 C294.155373,37.2755029 292.039647,36.8104243 290.063842,35.8802532 C288.088037,34.9500822 286.540346,33.6742029 285.420723,32.0525772 C284.301101,30.4309515 283.74953,28.5994475 283.765995,26.5580101 L292.11373,26.5580101 C292.196055,27.8750665 292.615907,28.9204643 293.373299,29.6942349 C294.130691,30.4680055 295.126811,30.8548851 296.361689,30.8548851 C299.160747,30.8548851 300.560254,28.7805524 300.560254,24.6318247 C300.560254,20.795898 298.847915,18.8779634 295.423187,18.8779634 C293.480312,18.8779634 292.03141,19.5035558 291.076437,20.7547593 L284.457523,19.1989943 Z"/>
</svg>
