<svg width="293" height="38" viewBox="0 0 293 38" fill="none" xmlns="http://www.w3.org/2000/svg">
<g clip-path="url(#clip0)">
<rect width="293" height="38" fill="white"/>
<path d="M24.3887 36.0331H0.688677V31.3335L11.8737 19.4185C13.4094 17.7412 14.5414 16.2775 15.2696 15.0275C16.0137 13.7774 16.3858 12.5907 16.3858 11.4672C16.3858 9.93233 15.9979 8.72975 15.2221 7.85946C14.4464 6.97335 13.3382 6.53029 11.8975 6.53029C10.346 6.53029 9.11903 7.06829 8.21663 8.14429C7.33005 9.20446 6.88677 10.6048 6.88677 12.3454H0C0 10.2409 0.498697 8.31834 1.49609 6.57776C2.50932 4.83719 3.93417 3.47637 5.77064 2.49532C7.60711 1.49844 9.68897 1 12.0162 1C15.5783 1 18.341 1.85447 20.3041 3.5634C22.283 5.27233 23.2725 7.68541 23.2725 10.8026C23.2725 12.5116 22.8292 14.2521 21.9427 16.0244C21.0561 17.7966 19.5363 19.8615 17.3832 22.2192L9.52274 30.5028H24.3887V36.0331Z" fill="url(#paint0_linear)"/>
<path d="M29.6368 19.0387L31.6316 1.4747H51.0096V7.19488H37.2598L36.4049 14.624C38.0355 13.7537 39.7691 13.3186 41.6056 13.3186C44.8986 13.3186 47.4791 14.3392 49.3473 16.3804C51.2154 18.4216 52.1495 21.2777 52.1495 24.9488C52.1495 27.1799 51.6745 29.1816 50.7246 30.9538C49.7905 32.7102 48.4449 34.0789 46.6875 35.06C44.9302 36.0252 42.8563 36.5078 40.4657 36.5078C38.3759 36.5078 36.4365 36.0885 34.6476 35.2498C32.8586 34.3954 31.4417 33.2007 30.3968 31.6658C29.3677 30.131 28.8215 28.3825 28.7582 26.4204H35.55C35.6925 27.8603 36.1912 28.9838 37.0461 29.7908C37.9168 30.5819 39.0488 30.9775 40.442 30.9775C41.9935 30.9775 43.1887 30.4237 44.0278 29.3161C44.8669 28.1926 45.2864 26.6102 45.2864 24.569C45.2864 22.6069 44.8036 21.1037 43.8378 20.0593C42.8721 19.015 41.5027 18.4928 39.7295 18.4928C38.0989 18.4928 36.7769 18.9201 35.7637 19.7745L35.0988 20.3916L29.6368 19.0387Z" fill="url(#paint1_linear)"/>
<path d="M58.9887 39H53.883L66.6117 1.4747H71.7174L58.9887 39Z" fill="url(#paint2_linear)"/>
<path d="M91.404 36.0331H84.541V9.59213L76.3481 12.1318V6.55403L90.6679 1.42723H91.404V36.0331Z" fill="url(#paint3_linear)"/>
<path d="M119.331 36.0331H112.468V9.59213L104.275 12.1318V6.55403L118.595 1.42723H119.331V36.0331Z" fill="url(#paint4_linear)"/>
<path d="M156.33 23.9994H142.96V18.4691H156.33V23.9994Z" fill="url(#paint5_linear)"/>
<path d="M197.365 36.0331H173.665V31.3335L184.85 19.4185C186.386 17.7412 187.518 16.2775 188.246 15.0275C188.99 13.7774 189.362 12.5907 189.362 11.4672C189.362 9.93233 188.974 8.72975 188.199 7.85946C187.423 6.97335 186.315 6.53029 184.874 6.53029C183.323 6.53029 182.096 7.06829 181.193 8.14429C180.307 9.20446 179.863 10.6048 179.863 12.3454H172.977C172.977 10.2409 173.475 8.31834 174.473 6.57776C175.486 4.83719 176.911 3.47637 178.747 2.49532C180.584 1.49844 182.666 1 184.993 1C188.555 1 191.318 1.85447 193.281 3.5634C195.26 5.27233 196.249 7.68541 196.249 10.8026C196.249 12.5116 195.806 14.2521 194.919 16.0244C194.033 17.7966 192.513 19.8615 190.36 22.2192L182.499 30.5028H197.365V36.0331Z" fill="url(#paint6_linear)"/>
<path d="M225.102 5.3198L211.732 36.0331H204.49L217.883 7.02873H200.69V1.4747H225.102V5.3198Z" fill="url(#paint7_linear)"/>
<path d="M231.965 39H226.86L239.588 1.4747H244.694L231.965 39Z" fill="url(#paint8_linear)"/>
<path d="M264.381 36.0331H257.518V9.59213L249.325 12.1318V6.55403L263.644 1.42723H264.381V36.0331Z" fill="url(#paint9_linear)"/>
<path d="M292.308 36.0331H285.445V9.59213L277.252 12.1318V6.55403L291.572 1.42723H292.308V36.0331Z" fill="url(#paint10_linear)"/>
</g>
<defs>
<linearGradient id="paint0_linear" x1="146.154" y1="1" x2="146.154" y2="39" gradientUnits="userSpaceOnUse">
<stop stop-color="#8E1B1E"/>
<stop offset="1" stop-color="#BC0E13"/>
</linearGradient>
<linearGradient id="paint1_linear" x1="146.154" y1="1" x2="146.154" y2="39" gradientUnits="userSpaceOnUse">
<stop stop-color="#8E1B1E"/>
<stop offset="1" stop-color="#BC0E13"/>
</linearGradient>
<linearGradient id="paint2_linear" x1="146.154" y1="1" x2="146.154" y2="39" gradientUnits="userSpaceOnUse">
<stop stop-color="#8E1B1E"/>
<stop offset="1" stop-color="#BC0E13"/>
</linearGradient>
<linearGradient id="paint3_linear" x1="146.154" y1="1" x2="146.154" y2="39" gradientUnits="userSpaceOnUse">
<stop stop-color="#8E1B1E"/>
<stop offset="1" stop-color="#BC0E13"/>
</linearGradient>
<linearGradient id="paint4_linear" x1="146.154" y1="1" x2="146.154" y2="39" gradientUnits="userSpaceOnUse">
<stop stop-color="#8E1B1E"/>
<stop offset="1" stop-color="#BC0E13"/>
</linearGradient>
<linearGradient id="paint5_linear" x1="146.154" y1="1" x2="146.154" y2="39" gradientUnits="userSpaceOnUse">
<stop stop-color="#8E1B1E"/>
<stop offset="1" stop-color="#BC0E13"/>
</linearGradient>
<linearGradient id="paint6_linear" x1="146.154" y1="1" x2="146.154" y2="39" gradientUnits="userSpaceOnUse">
<stop stop-color="#8E1B1E"/>
<stop offset="1" stop-color="#BC0E13"/>
</linearGradient>
<linearGradient id="paint7_linear" x1="146.154" y1="1" x2="146.154" y2="39" gradientUnits="userSpaceOnUse">
<stop stop-color="#8E1B1E"/>
<stop offset="1" stop-color="#BC0E13"/>
</linearGradient>
<linearGradient id="paint8_linear" x1="146.154" y1="1" x2="146.154" y2="39" gradientUnits="userSpaceOnUse">
<stop stop-color="#8E1B1E"/>
<stop offset="1" stop-color="#BC0E13"/>
</linearGradient>
<linearGradient id="paint9_linear" x1="146.154" y1="1" x2="146.154" y2="39" gradientUnits="userSpaceOnUse">
<stop stop-color="#8E1B1E"/>
<stop offset="1" stop-color="#BC0E13"/>
</linearGradient>
<linearGradient id="paint10_linear" x1="146.154" y1="1" x2="146.154" y2="39" gradientUnits="userSpaceOnUse">
<stop stop-color="#8E1B1E"/>
<stop offset="1" stop-color="#BC0E13"/>
</linearGradient>
<clipPath id="clip0">
<rect width="293" height="38" fill="white"/>
</clipPath>
</defs>
</svg>
