<svg xmlns="http://www.w3.org/2000/svg" width="311" height="41" viewBox="0 0 311 41">
  <defs>
    <linearGradient id="a" x1="51.127%" x2="51.127%" y1="-58.407%" y2="137.545%">
      <stop stop-color="#6DA296" offset="0%"/>
      <stop stop-color="#679E92" offset="36.593%"/>
      <stop stop-color="#60968A" offset="61.88%"/>
      <stop stop-color="#1F7866" offset="100%"/>
    </linearGradient>
  </defs>
  <path fill="url(#a)" fill-rule="evenodd" d="M17.9747543,38 L9.55776207,38 L9.55776207,11.2050781 L1.29018395,13.6206055 L1.29018395,7.24560547 L17.2027816,1.7421875 L17.9747543,1.7421875 L17.9747543,38 Z M48.890372,1.21923828 L48.890372,7.81835938 L48.5168368,7.81835938 C45.3791258,7.81835938 42.801759,8.56957257 40.7846591,10.0720215 C38.7675592,11.5744704 37.5266048,13.662096 37.0617587,16.3349609 C38.9543463,14.4755766 41.3449474,13.5458984 44.2336337,13.5458984 C47.3713447,13.5458984 49.8698549,14.6913948 51.7292392,16.9824219 C53.5886235,19.273449 54.5183017,22.2783017 54.5183017,25.9970703 C54.5183017,28.304699 53.9746059,30.4213771 52.8871982,32.347168 C51.7997904,34.2729588 50.2807626,35.7795356 48.3300693,36.8669434 C46.3793759,37.9543511 44.217044,38.4980469 41.8430087,38.4980469 C39.2697537,38.4980469 36.9704602,37.9128476 34.9450595,36.7424316 C32.9196587,35.5720156 31.3425261,33.8994249 30.2136142,31.7246094 C29.0847023,29.5497938 28.5036534,27.0429829 28.4704501,24.2041016 L28.4704501,20.8422852 C28.4704501,17.1069149 29.2714675,13.7492825 30.8735263,10.7692871 C32.4755851,7.78929174 34.7624274,5.45264519 37.734122,3.75927734 C40.7058165,2.0659095 44.0011937,1.21923828 47.6203525,1.21923828 L48.890372,1.21923828 Z M41.3200595,19.9707031 C40.2077492,19.9707031 39.278071,20.2280248 38.530997,20.7426758 C37.7839229,21.2573268 37.2277762,21.8881799 36.86254,22.6352539 L36.86254,25.1503906 C36.86254,29.7324448 38.4479733,32.0234375 41.6188876,32.0234375 C42.8972143,32.0234375 43.963854,31.4506893 44.8188388,30.3051758 C45.6738235,29.1596622 46.1013095,27.7236414 46.1013095,25.9970703 C46.1013095,24.2206942 45.6655228,22.7722224 44.7939364,21.6516113 C43.9223501,20.5310003 42.7644027,19.9707031 41.3200595,19.9707031 Z M60.8802085,41.112793 L54.9285483,41.112793 L67.3050132,1.7421875 L73.2815757,1.7421875 L60.8802085,41.112793 Z M100.661061,23.1831055 C100.661061,28.0805909 99.5612181,31.8574086 97.3615,34.5136719 C95.161782,37.1699352 92.0614712,38.4980469 88.0604746,38.4980469 C84.0262748,38.4980469 80.9052123,37.1616345 78.6971934,34.4887695 C76.4891745,31.8159046 75.3851817,28.0473876 75.3851817,23.1831055 L75.3851817,16.559082 C75.3851817,11.6615966 76.4850242,7.88477891 78.6847422,5.22851562 C80.8844603,2.57225234 83.9930717,1.24414062 88.01067,1.24414062 C92.0282682,1.24414062 95.14103,2.58055304 97.3490489,5.25341797 C99.5570677,7.9262829 100.661061,11.7031006 100.661061,16.5839844 L100.661061,23.1831055 Z M92.2689707,15.4882812 C92.2689707,12.8818229 91.9286421,10.9353092 91.2479746,9.64868164 C90.5673072,8.36205411 89.4882164,7.71875 88.01067,7.71875 C86.5663268,7.71875 85.5162885,8.31640027 84.8605235,9.51171875 C84.2047585,10.7070372 83.8519788,12.5165894 83.8021739,14.9404297 L83.8021739,24.2041016 C83.8021739,26.9101698 84.1425025,28.8898863 84.82317,30.1433105 C85.5038374,31.3967348 86.5829282,32.0234375 88.0604746,32.0234375 C89.4882162,32.0234375 90.5424048,31.4133362 91.2230723,30.1931152 C91.9037398,28.9728943 92.2523691,27.0595833 92.2689707,24.453125 L92.2689707,15.4882812 Z M105.229999,20.2695312 L107.446307,1.7421875 L128.638202,1.7421875 L128.638202,8.26660156 L114.269549,8.26660156 L113.447772,15.4633789 C114.045431,15.1147444 114.829847,14.8076185 115.801044,14.5419922 C116.77224,14.2763659 117.72267,14.1435547 118.652362,14.1435547 C122.254919,14.1435547 125.023202,15.2101944 126.957294,17.3435059 C128.891385,19.4768173 129.858417,22.469219 129.858417,26.3208008 C129.858417,28.6450312 129.339623,30.7492582 128.30202,32.6335449 C127.264417,34.5178317 125.807645,35.9663035 123.931659,36.9790039 C122.055673,37.9917043 119.839386,38.4980469 117.282733,38.4980469 C115.008308,38.4980469 112.875028,38.0290574 110.882831,37.0910645 C108.890633,36.1530715 107.330102,34.8664633 106.20119,33.2312012 C105.072278,31.5959391 104.516131,29.7490337 104.532733,27.6904297 L112.949725,27.6904297 C113.032733,29.0185613 113.456069,30.07275 114.219745,30.8530273 C114.98342,31.6333047 115.987805,32.0234375 117.232928,32.0234375 C120.055208,32.0234375 121.466327,29.9316615 121.466327,25.7480469 C121.466327,21.8798635 119.739782,19.9458008 116.286639,19.9458008 C114.327645,19.9458008 112.866722,20.5766538 111.903827,21.8383789 L105.229999,20.2695312 Z M162.927445,25.6235352 L147.961136,25.6235352 L147.961136,19.1240234 L162.927445,19.1240234 L162.927445,25.6235352 Z M200.055556,38 L191.638563,38 L191.638563,11.2050781 L183.370985,13.6206055 L183.370985,7.24560547 L199.283583,1.7421875 L200.055556,1.7421875 L200.055556,38 Z M235.154767,11.4291992 C235.154767,13.1889736 234.71898,14.7412042 233.847394,16.0859375 C232.975808,17.4306708 231.776357,18.5097616 230.249005,19.3232422 C231.975576,20.1699261 233.345192,21.3278735 234.357892,22.7971191 C235.370592,24.2663648 235.876935,26.005361 235.876935,28.0141602 C235.876935,31.251481 234.760491,33.8080961 232.52757,35.684082 C230.294648,37.560068 227.21924,38.4980469 223.301251,38.4980469 C219.366661,38.4980469 216.2622,37.5559176 213.987775,35.6716309 C211.713349,33.7873441 210.576154,31.2348794 210.576154,28.0141602 C210.576154,26.0717676 211.074196,24.3535231 212.070294,22.859375 C213.066393,21.3652269 214.477512,20.1865278 216.303693,19.3232422 C214.75974,18.5097616 213.547838,17.4306708 212.667951,16.0859375 C211.788063,14.7412042 211.348126,13.1889736 211.348126,11.4291992 C211.348126,8.27488657 212.418916,5.7846771 214.560529,3.95849609 C216.702141,2.13231509 219.590784,1.21923828 223.226544,1.21923828 C226.895508,1.21923828 229.800752,2.13231509 231.942365,3.95849609 C234.083977,5.7846771 235.154767,8.27488657 235.154767,11.4291992 Z M227.459943,27.3417969 C227.459943,25.8476488 227.07396,24.6980021 226.301984,23.8928223 C225.530007,23.0876425 224.513172,22.6850586 223.251447,22.6850586 C221.989722,22.6850586 220.968736,23.0876425 220.188458,23.8928223 C219.408181,24.6980021 219.018048,25.8476488 219.018048,27.3417969 C219.018048,28.78614 219.412331,29.927486 220.20091,30.7658691 C220.989488,31.6042522 222.022925,32.0234375 223.301251,32.0234375 C224.546375,32.0234375 225.550759,31.6084026 226.314435,30.7783203 C227.078111,29.948238 227.459943,28.8027417 227.459943,27.3417969 Z M223.226544,7.69384766 C222.097632,7.69384766 221.23851,8.06322873 220.649152,8.80200195 C220.059793,9.54077518 219.765119,10.5659114 219.765119,11.8774414 C219.765119,13.1723698 220.063944,14.2182577 220.661603,15.0151367 C221.259262,15.8120157 222.139136,16.2104492 223.301251,16.2104492 C224.446765,16.2104492 225.305887,15.8120157 225.878644,15.0151367 C226.451401,14.2182577 226.737775,13.1723698 226.737775,11.8774414 C226.737775,10.5825131 226.4431,9.56152717 225.853742,8.81445312 C225.264383,8.06737908 224.38866,7.69384766 223.226544,7.69384766 Z M242.96101,41.112793 L237.00935,41.112793 L249.385814,1.7421875 L255.362377,1.7421875 L242.96101,41.112793 Z M282.741862,23.1831055 C282.741862,28.0805909 281.642019,31.8574086 279.442301,34.5136719 C277.242583,37.1699352 274.142272,38.4980469 270.141276,38.4980469 C266.107076,38.4980469 262.986014,37.1616345 260.777995,34.4887695 C258.569976,31.8159046 257.465983,28.0473876 257.465983,23.1831055 L257.465983,16.559082 C257.465983,11.6615966 258.565825,7.88477891 260.765543,5.22851562 C262.965262,2.57225234 266.073873,1.24414062 270.091471,1.24414062 C274.109069,1.24414062 277.221831,2.58055304 279.42985,5.25341797 C281.637869,7.9262829 282.741862,11.7031006 282.741862,16.5839844 L282.741862,23.1831055 Z M274.349772,15.4882812 C274.349772,12.8818229 274.009443,10.9353092 273.328776,9.64868164 C272.648108,8.36205411 271.569018,7.71875 270.091471,7.71875 C268.647128,7.71875 267.59709,8.31640027 266.941325,9.51171875 C266.28556,10.7070372 265.93278,12.5165894 265.882975,14.9404297 L265.882975,24.2041016 C265.882975,26.9101698 266.223304,28.8898863 266.903971,30.1433105 C267.584639,31.3967348 268.663729,32.0234375 270.141276,32.0234375 C271.569017,32.0234375 272.623206,31.4133362 273.303874,30.1931152 C273.984541,28.9728943 274.33317,27.0595833 274.349772,24.453125 L274.349772,15.4882812 Z M287.3108,20.2695312 L289.527108,1.7421875 L310.719003,1.7421875 L310.719003,8.26660156 L296.350351,8.26660156 L295.528573,15.4633789 C296.126233,15.1147444 296.910649,14.8076185 297.881845,14.5419922 C298.853041,14.2763659 299.803471,14.1435547 300.733163,14.1435547 C304.33572,14.1435547 307.104003,15.2101944 309.038095,17.3435059 C310.972187,19.4768173 311.939218,22.469219 311.939218,26.3208008 C311.939218,28.6450312 311.420424,30.7492582 310.382821,32.6335449 C309.345219,34.5178317 307.888446,35.9663035 306.01246,36.9790039 C304.136474,37.9917043 301.920188,38.4980469 299.363534,38.4980469 C297.089109,38.4980469 294.955829,38.0290574 292.963632,37.0910645 C290.971434,36.1530715 289.410903,34.8664633 288.281991,33.2312012 C287.153079,31.5959391 286.596933,29.7490337 286.613534,27.6904297 L295.030526,27.6904297 C295.113535,29.0185613 295.53687,30.07275 296.300546,30.8530273 C297.064222,31.6333047 298.068606,32.0234375 299.31373,32.0234375 C302.136009,32.0234375 303.547128,29.9316615 303.547128,25.7480469 C303.547128,21.8798635 301.820583,19.9458008 298.367441,19.9458008 C296.408446,19.9458008 294.947523,20.5766538 293.984628,21.8383789 L287.3108,20.2695312 Z"/>
</svg>
