<svg width="293" height="38" viewBox="0 0 293 38" fill="none" xmlns="http://www.w3.org/2000/svg">
<rect width="293" height="38" fill="white"/>
<path d="M14.8594 34.5938H8.08594V8.48438L0 10.9922V5.48438L14.1328 0.421875H14.8594V34.5938Z" fill="url(#paint0_linear)"/>
<path d="M26.9766 17.8125L28.9453 0.46875H48.0703V6.11719H34.5L33.6562 13.4531C35.2656 12.5938 36.9766 12.1641 38.7891 12.1641C42.0391 12.1641 44.5859 13.1719 46.4297 15.1875C48.2734 17.2031 49.1953 20.0234 49.1953 23.6484C49.1953 25.8516 48.7266 27.8281 47.7891 29.5781C46.8672 31.3125 45.5391 32.6641 43.8047 33.6328C42.0703 34.5859 40.0234 35.0625 37.6641 35.0625C35.6016 35.0625 33.6875 34.6484 31.9219 33.8203C30.1562 32.9766 28.7578 31.7969 27.7266 30.2812C26.7109 28.7656 26.1719 27.0391 26.1094 25.1016H32.8125C32.9531 26.5234 33.4453 27.6328 34.2891 28.4297C35.1484 29.2109 36.2656 29.6016 37.6406 29.6016C39.1719 29.6016 40.3516 29.0547 41.1797 27.9609C42.0078 26.8516 42.4219 25.2891 42.4219 23.2734C42.4219 21.3359 41.9453 19.8516 40.9922 18.8203C40.0391 17.7891 38.6875 17.2734 36.9375 17.2734C35.3281 17.2734 34.0234 17.6953 33.0234 18.5391L32.3672 19.1484L26.9766 17.8125Z" fill="url(#paint1_linear)"/>
<path d="M55.9453 37.5234H50.9062L63.4688 0.46875H68.5078L55.9453 37.5234Z" fill="url(#paint2_linear)"/>
<path d="M94.4531 20.4844C94.4531 25.2031 93.4766 28.8125 91.5234 31.3125C89.5703 33.8125 86.7109 35.0625 82.9453 35.0625C79.2266 35.0625 76.3828 33.8359 74.4141 31.3828C72.4453 28.9297 71.4375 25.4141 71.3906 20.8359V14.5547C71.3906 9.78906 72.375 6.17188 74.3438 3.70312C76.3281 1.23438 79.1797 0 82.8984 0C86.6172 0 89.4609 1.22656 91.4297 3.67969C93.3984 6.11719 94.4062 9.625 94.4531 14.2031V20.4844ZM87.6797 13.5938C87.6797 10.7656 87.2891 8.71094 86.5078 7.42969C85.7422 6.13281 84.5391 5.48438 82.8984 5.48438C81.3047 5.48438 80.125 6.10156 79.3594 7.33594C78.6094 8.55469 78.2109 10.4688 78.1641 13.0781V21.375C78.1641 24.1562 78.5391 26.2266 79.2891 27.5859C80.0547 28.9297 81.2734 29.6016 82.9453 29.6016C84.6016 29.6016 85.7969 28.9531 86.5312 27.6562C87.2656 26.3594 87.6484 24.375 87.6797 21.7031V13.5938Z" fill="url(#paint3_linear)"/>
<path d="M100.055 17.8125L102.023 0.46875H121.148V6.11719H107.578L106.734 13.4531C108.344 12.5938 110.055 12.1641 111.867 12.1641C115.117 12.1641 117.664 13.1719 119.508 15.1875C121.352 17.2031 122.273 20.0234 122.273 23.6484C122.273 25.8516 121.805 27.8281 120.867 29.5781C119.945 31.3125 118.617 32.6641 116.883 33.6328C115.148 34.5859 113.102 35.0625 110.742 35.0625C108.68 35.0625 106.766 34.6484 105 33.8203C103.234 32.9766 101.836 31.7969 100.805 30.2812C99.7891 28.7656 99.25 27.0391 99.1875 25.1016H105.891C106.031 26.5234 106.523 27.6328 107.367 28.4297C108.227 29.2109 109.344 29.6016 110.719 29.6016C112.25 29.6016 113.43 29.0547 114.258 27.9609C115.086 26.8516 115.5 25.2891 115.5 23.2734C115.5 21.3359 115.023 19.8516 114.07 18.8203C113.117 17.7891 111.766 17.2734 110.016 17.2734C108.406 17.2734 107.102 17.6953 106.102 18.5391L105.445 19.1484L100.055 17.8125Z" fill="url(#paint4_linear)"/>
<path d="M152.016 22.7109H138.82V17.25H152.016V22.7109Z" fill="url(#paint5_linear)"/>
<path d="M185.578 34.5938H178.805V8.48438L170.719 10.9922V5.48438L184.852 0.421875H185.578V34.5938Z" fill="url(#paint6_linear)"/>
<path d="M219.891 4.26562L206.695 34.5938H199.547L212.766 5.95312H195.797V0.46875H219.891V4.26562Z" fill="url(#paint7_linear)"/>
<path d="M226.664 37.5234H221.625L234.188 0.46875H239.227L226.664 37.5234Z" fill="url(#paint8_linear)"/>
<path d="M265.172 20.4844C265.172 25.2031 264.195 28.8125 262.242 31.3125C260.289 33.8125 257.43 35.0625 253.664 35.0625C249.945 35.0625 247.102 33.8359 245.133 31.3828C243.164 28.9297 242.156 25.4141 242.109 20.8359V14.5547C242.109 9.78906 243.094 6.17188 245.062 3.70312C247.047 1.23438 249.898 0 253.617 0C257.336 0 260.18 1.22656 262.148 3.67969C264.117 6.11719 265.125 9.625 265.172 14.2031V20.4844ZM258.398 13.5938C258.398 10.7656 258.008 8.71094 257.227 7.42969C256.461 6.13281 255.258 5.48438 253.617 5.48438C252.023 5.48438 250.844 6.10156 250.078 7.33594C249.328 8.55469 248.93 10.4688 248.883 13.0781V21.375C248.883 24.1562 249.258 26.2266 250.008 27.5859C250.773 28.9297 251.992 29.6016 253.664 29.6016C255.32 29.6016 256.516 28.9531 257.25 27.6562C257.984 26.3594 258.367 24.375 258.398 21.7031V13.5938Z" fill="url(#paint9_linear)"/>
<path d="M270.773 17.8125L272.742 0.46875H291.867V6.11719H278.297L277.453 13.4531C279.062 12.5938 280.773 12.1641 282.586 12.1641C285.836 12.1641 288.383 13.1719 290.227 15.1875C292.07 17.2031 292.992 20.0234 292.992 23.6484C292.992 25.8516 292.523 27.8281 291.586 29.5781C290.664 31.3125 289.336 32.6641 287.602 33.6328C285.867 34.5859 283.82 35.0625 281.461 35.0625C279.398 35.0625 277.484 34.6484 275.719 33.8203C273.953 32.9766 272.555 31.7969 271.523 30.2812C270.508 28.7656 269.969 27.0391 269.906 25.1016H276.609C276.75 26.5234 277.242 27.6328 278.086 28.4297C278.945 29.2109 280.062 29.6016 281.438 29.6016C282.969 29.6016 284.148 29.0547 284.977 27.9609C285.805 26.8516 286.219 25.2891 286.219 23.2734C286.219 21.3359 285.742 19.8516 284.789 18.8203C283.836 17.7891 282.484 17.2734 280.734 17.2734C279.125 17.2734 277.82 17.6953 276.82 18.5391L276.164 19.1484L270.773 17.8125Z" fill="url(#paint10_linear)"/>
<defs>
<linearGradient id="paint0_linear" x1="146.496" y1="0" x2="146.496" y2="37.5234" gradientUnits="userSpaceOnUse">
<stop stop-color="#23205C"/>
<stop offset="1" stop-color="#3E1879"/>
</linearGradient>
<linearGradient id="paint1_linear" x1="146.496" y1="0" x2="146.496" y2="37.5234" gradientUnits="userSpaceOnUse">
<stop stop-color="#23205C"/>
<stop offset="1" stop-color="#3E1879"/>
</linearGradient>
<linearGradient id="paint2_linear" x1="146.496" y1="0" x2="146.496" y2="37.5234" gradientUnits="userSpaceOnUse">
<stop stop-color="#23205C"/>
<stop offset="1" stop-color="#3E1879"/>
</linearGradient>
<linearGradient id="paint3_linear" x1="146.496" y1="0" x2="146.496" y2="37.5234" gradientUnits="userSpaceOnUse">
<stop stop-color="#23205C"/>
<stop offset="1" stop-color="#3E1879"/>
</linearGradient>
<linearGradient id="paint4_linear" x1="146.496" y1="0" x2="146.496" y2="37.5234" gradientUnits="userSpaceOnUse">
<stop stop-color="#23205C"/>
<stop offset="1" stop-color="#3E1879"/>
</linearGradient>
<linearGradient id="paint5_linear" x1="146.496" y1="0" x2="146.496" y2="37.5234" gradientUnits="userSpaceOnUse">
<stop stop-color="#23205C"/>
<stop offset="1" stop-color="#3E1879"/>
</linearGradient>
<linearGradient id="paint6_linear" x1="146.496" y1="0" x2="146.496" y2="37.5234" gradientUnits="userSpaceOnUse">
<stop stop-color="#23205C"/>
<stop offset="1" stop-color="#3E1879"/>
</linearGradient>
<linearGradient id="paint7_linear" x1="146.496" y1="0" x2="146.496" y2="37.5234" gradientUnits="userSpaceOnUse">
<stop stop-color="#23205C"/>
<stop offset="1" stop-color="#3E1879"/>
</linearGradient>
<linearGradient id="paint8_linear" x1="146.496" y1="0" x2="146.496" y2="37.5234" gradientUnits="userSpaceOnUse">
<stop stop-color="#23205C"/>
<stop offset="1" stop-color="#3E1879"/>
</linearGradient>
<linearGradient id="paint9_linear" x1="146.496" y1="0" x2="146.496" y2="37.5234" gradientUnits="userSpaceOnUse">
<stop stop-color="#23205C"/>
<stop offset="1" stop-color="#3E1879"/>
</linearGradient>
<linearGradient id="paint10_linear" x1="146.496" y1="0" x2="146.496" y2="37.5234" gradientUnits="userSpaceOnUse">
<stop stop-color="#23205C"/>
<stop offset="1" stop-color="#3E1879"/>
</linearGradient>
</defs>
</svg>
